<svg width="1804" height="1211" viewBox="0 0 1804 1211" fill="none" xmlns="http://www.w3.org/2000/svg">
<path d="M323.074 1119.05C315.234 1119.05 307.207 1116.53 298.994 1111.49C290.78 1106.45 282.847 1099.92 275.194 1091.89C267.54 1083.68 260.634 1074.9 254.474 1065.57C248.5 1056.24 243.74 1047.18 240.194 1038.41C236.647 1029.64 234.874 1022.17 234.874 1016.01V1015.45C234.874 1011.34 235.994 1009.29 238.234 1009.29H239.634L239.914 1009.57H240.194C244.674 1011.25 249.9 1012.09 255.874 1012.09C262.407 1012.09 269.22 1011.16 276.314 1009.29C283.594 1007.42 289.847 1005.18 295.074 1002.57C300.674 999.584 306.74 996.037 313.274 991.931C319.807 987.824 325.407 982.877 330.074 977.091C334.74 971.304 337.074 964.584 337.074 956.931C337.074 951.144 335.02 946.477 330.914 942.931C326.994 939.384 321.767 936.677 315.234 934.811C308.7 932.944 301.7 931.637 294.234 930.891C286.767 930.144 279.58 929.771 272.674 929.771C267.447 929.771 262.594 929.864 258.114 930.051C253.634 930.237 250.087 930.517 247.474 930.891C243.554 931.264 238.14 932.011 231.234 933.131C224.327 934.064 216.767 935.464 208.554 937.331C200.527 939.197 192.407 941.437 184.194 944.051C176.167 946.477 168.7 949.371 161.794 952.731C154.887 955.904 149.38 959.544 145.274 963.651C141.167 967.571 139.114 971.957 139.114 976.811C139.114 981.477 141.074 985.304 144.994 988.291C148.727 991.091 153.58 992.491 159.554 992.491C165.714 992.491 172.62 990.904 180.274 987.731C188.114 984.371 196.047 978.957 204.074 971.491C204.447 971.117 204.727 970.931 204.914 970.931C205.474 970.931 205.754 971.397 205.754 972.331C205.754 973.264 205.287 974.757 204.354 976.811C203.607 978.677 202.394 980.357 200.714 981.851C194.18 987.824 186.9 992.304 178.874 995.291C171.034 998.091 163.38 999.491 155.914 999.491C154.047 999.491 152.18 999.397 150.314 999.211C148.26 999.024 146.394 998.744 144.714 998.371C138.367 996.877 133.42 993.891 129.874 989.411C126.14 984.931 124.274 979.797 124.274 974.011C124.274 965.797 127.167 958.704 132.954 952.731C138.554 946.571 146.02 941.344 155.354 937.051C164.687 932.571 174.86 928.931 185.874 926.131C197.074 923.331 208.087 921.091 218.914 919.411C223.394 918.664 228.527 918.104 234.314 917.731C240.1 917.357 246.26 917.171 252.794 917.171C263.434 917.171 274.354 917.917 285.554 919.411C296.94 920.717 307.487 923.144 317.194 926.691C326.9 930.051 334.74 934.717 340.714 940.691C346.687 946.664 349.674 954.224 349.674 963.371C349.674 971.584 347.34 979.331 342.674 986.611C338.007 993.891 331.66 1000.33 323.634 1005.93C315.794 1011.34 306.927 1015.64 297.034 1018.81C287.14 1021.8 277.06 1023.29 266.794 1023.29C262.314 1023.29 257.927 1023.01 253.634 1022.45C252.514 1022.26 251.487 1022.08 250.554 1021.89C249.62 1021.7 248.687 1021.52 247.754 1021.33C250.18 1026.56 253.354 1032.53 257.274 1039.25C261.38 1045.78 266.047 1052.5 271.274 1059.41C276.687 1066.13 282.38 1072.38 288.354 1078.17C294.514 1083.96 300.767 1088.62 307.114 1092.17C313.46 1095.72 319.62 1097.49 325.594 1097.49C330.26 1097.49 333.714 1096.56 335.954 1094.69C338.38 1092.82 339.594 1089.56 339.594 1084.89C339.594 1080.97 338.474 1076.02 336.234 1070.05C333.994 1063.89 331.94 1058.76 330.074 1054.65C329.887 1054.46 329.794 1054.09 329.794 1053.53C329.794 1052.04 330.354 1051.29 331.474 1051.29C332.407 1051.29 333.247 1051.94 333.994 1053.25C335.487 1055.68 336.794 1058.01 337.914 1060.25C339.034 1062.49 340.714 1066.6 342.954 1072.57C346.127 1081.53 347.714 1089.09 347.714 1095.25C347.714 1102.72 345.567 1108.6 341.274 1112.89C337.167 1117 331.1 1119.05 323.074 1119.05ZM230.114 1133.33C225.82 1133.33 221.527 1131.65 217.234 1128.29C213.127 1124.93 210.327 1119.8 208.834 1112.89C206.594 1102.25 205.474 1089.93 205.474 1075.93C205.474 1063.8 206.127 1051.29 207.434 1038.41C208.74 1025.34 210.514 1012.56 212.754 1000.05C214.994 987.544 217.42 976.157 220.034 965.891C222.834 955.437 225.634 946.851 228.434 940.131C228.807 939.571 229.274 939.291 229.834 939.291C230.394 939.104 230.954 939.011 231.514 939.011H232.914C237.207 939.011 240.567 939.757 242.994 941.251C245.42 942.744 247.287 945.451 248.594 949.371C247.66 952.357 246.074 957.771 243.834 965.611C241.594 973.451 239.167 982.877 236.554 993.891C233.94 1004.72 231.42 1016.48 228.994 1029.17C226.754 1041.86 225.167 1054.56 224.234 1067.25C224.047 1070.42 223.767 1073.97 223.394 1077.89C223.207 1081.81 223.114 1085.73 223.114 1089.65C223.114 1095.06 223.394 1100.2 223.954 1105.05C224.7 1109.9 225.914 1113.82 227.594 1116.81C229.274 1119.8 231.607 1121.29 234.594 1121.29C236.46 1121.29 238.42 1120.92 240.474 1120.17C242.527 1119.42 243.834 1118.68 244.394 1117.93H246.354C245.794 1122.97 243.927 1126.8 240.754 1129.41C237.58 1132.02 234.034 1133.33 230.114 1133.33ZM394.73 1122.13C385.77 1122.13 378.49 1119.42 372.89 1114.01C367.476 1108.41 363.463 1101.6 360.85 1093.57C358.423 1085.36 357.21 1077.33 357.21 1069.49C357.21 1060.53 358.143 1051.57 360.01 1042.61C361.876 1033.46 364.77 1025.16 368.69 1017.69C372.796 1010.22 377.93 1004.25 384.09 999.771C390.25 995.104 397.53 992.771 405.93 992.771C411.903 992.771 416.57 994.544 419.93 998.091C423.29 1001.64 424.97 1006.86 424.97 1013.77C424.97 1023.1 422.636 1031.41 417.97 1038.69C413.49 1045.78 407.796 1051.57 400.89 1056.05C393.983 1060.53 386.796 1063.61 379.33 1065.29V1066.69C379.33 1074.34 380.076 1081.53 381.57 1088.25C383.25 1094.78 385.863 1100.1 389.41 1104.21C393.143 1108.13 397.996 1110.09 403.97 1110.09C411.25 1110.09 416.85 1107.1 420.77 1101.13C424.69 1094.97 427.77 1087.22 430.01 1077.89C430.196 1077.14 430.476 1076.49 430.85 1075.93C431.41 1075.18 431.876 1074.81 432.25 1074.81C433.93 1074.81 434.676 1076.02 434.49 1078.45C433.93 1083.49 432.81 1088.25 431.13 1092.73C429.45 1097.21 427.676 1101.04 425.81 1104.21C422.263 1110 417.97 1114.38 412.93 1117.37C408.076 1120.54 402.01 1122.13 394.73 1122.13ZM379.61 1058.85C385.583 1057.36 390.81 1054.46 395.29 1050.17C399.77 1045.69 403.223 1040.46 405.65 1034.49C408.263 1028.52 409.57 1022.45 409.57 1016.29V1014.89C409.57 1011.53 409.01 1008.36 407.89 1005.37C406.956 1002.38 405.09 1000.89 402.29 1000.89C398.93 1000.89 395.943 1002.57 393.33 1005.93C390.903 1009.1 388.756 1013.21 386.89 1018.25C385.21 1023.29 383.81 1028.52 382.69 1033.93C381.57 1039.34 380.73 1044.29 380.17 1048.77C379.796 1053.25 379.61 1056.52 379.61 1058.57V1058.85ZM457.924 1119.89C449.524 1119.89 442.431 1117.93 436.644 1114.01C431.044 1109.9 428.244 1102.72 428.244 1092.45C428.244 1092.08 428.244 1091.24 428.244 1089.93C428.431 1088.44 428.618 1086.94 428.804 1085.45C427.684 1083.4 427.124 1080.6 427.124 1077.05C427.124 1074.81 427.498 1072.85 428.244 1071.17C428.991 1069.49 430.111 1068.65 431.604 1068.65H431.884C432.444 1068.65 433.191 1069.3 434.124 1070.61C436.551 1063.7 438.791 1056.61 440.844 1049.33C442.898 1041.86 444.764 1035.24 446.444 1029.45C448.311 1022.73 450.644 1015.54 453.444 1007.89C456.431 1000.05 461.098 994.077 467.444 989.971C472.298 986.797 477.524 985.211 483.124 985.211C483.498 985.211 483.964 985.304 484.524 985.491C485.084 985.491 485.551 985.491 485.924 985.491C487.418 985.677 488.164 986.331 488.164 987.451C488.164 988.757 487.511 989.411 486.204 989.411C484.151 989.597 482.658 991.277 481.724 994.451C480.791 997.437 480.324 1000.89 480.324 1004.81C480.324 1005.74 480.324 1006.77 480.324 1007.89C480.324 1009.01 480.418 1010.04 480.604 1010.97C481.351 1017.13 483.031 1023.94 485.644 1031.41C488.258 1038.69 490.684 1046.06 492.924 1053.53C495.351 1060.81 496.564 1067.62 496.564 1073.97V1075.37C496.564 1077.8 496.378 1080.41 496.004 1083.21C495.818 1086.01 495.258 1088.72 494.324 1091.33C496.938 1091.14 499.458 1090.86 501.884 1090.49C504.498 1089.93 506.831 1089.28 508.884 1088.53C511.498 1087.41 513.551 1086.1 515.044 1084.61C516.724 1083.12 518.124 1081.44 519.244 1079.57C519.618 1079.01 520.084 1078.73 520.644 1078.73C522.138 1078.73 522.884 1079.66 522.884 1081.53C522.884 1082.09 522.698 1082.74 522.324 1083.49C520.271 1087.6 516.538 1090.96 511.124 1093.57C505.711 1096.18 499.364 1097.68 492.084 1098.05C489.471 1104.02 485.364 1109.16 479.764 1113.45C474.351 1117.74 467.071 1119.89 457.924 1119.89ZM471.364 1088.25C471.738 1086.2 472.018 1084.05 472.204 1081.81C472.391 1079.57 472.484 1077.33 472.484 1075.09C472.484 1071.54 472.298 1068 471.924 1064.45C471.551 1060.72 471.084 1057.08 470.524 1053.53C469.218 1044.76 467.631 1036.73 465.764 1029.45C464.084 1022.17 463.244 1015.64 463.244 1009.85C463.244 1006.86 463.524 1004.16 464.084 1001.73C463.151 1001.73 462.124 1003.13 461.004 1005.93C459.884 1008.73 458.764 1011.9 457.644 1015.45C456.524 1019 455.591 1022.17 454.844 1024.97C452.604 1033 450.178 1041.3 447.564 1049.89C444.951 1058.29 442.151 1066.6 439.164 1074.81C441.218 1076.12 443.551 1077.42 446.164 1078.73C448.964 1080.04 451.671 1081.25 454.284 1082.37C456.711 1083.49 459.324 1084.61 462.124 1085.73C465.111 1086.66 468.191 1087.5 471.364 1088.25ZM450.364 1110.65H451.484C454.844 1110.28 458.204 1109.16 461.564 1107.29C464.924 1105.24 467.351 1102.16 468.844 1098.05C468.844 1097.86 468.844 1097.77 468.844 1097.77C469.031 1097.58 469.124 1097.4 469.124 1097.21C462.218 1096.65 455.684 1095.81 449.524 1094.69C443.551 1093.38 438.698 1091.8 434.964 1089.93C434.964 1090.49 434.871 1091.05 434.684 1091.61C434.684 1092.17 434.684 1092.64 434.684 1093.01C434.684 1098.61 436.084 1103 438.884 1106.17C441.871 1109.16 445.698 1110.65 450.364 1110.65ZM545.125 975.131C541.578 975.131 538.405 973.824 535.605 971.211C532.991 968.597 531.685 965.424 531.685 961.691C531.685 957.957 532.991 954.784 535.605 952.171C538.405 949.557 541.578 948.251 545.125 948.251C548.858 948.251 552.031 949.557 554.645 952.171C557.258 954.784 558.565 957.957 558.565 961.691C558.565 965.424 557.258 968.597 554.645 971.211C552.031 973.824 548.858 975.131 545.125 975.131ZM543.165 1118.21C536.445 1118.21 531.125 1115.41 527.205 1109.81C523.471 1104.02 520.765 1096.74 519.085 1087.97C517.591 1079.01 516.845 1069.68 516.845 1059.97C516.845 1051.94 517.218 1044.2 517.965 1036.73C518.898 1029.08 519.925 1022.45 521.045 1016.85C522.351 1011.06 523.565 1006.96 524.685 1004.53C525.805 1002.29 527.578 1000.24 530.005 998.371C532.618 996.317 536.071 995.291 540.365 995.291C542.791 995.291 545.218 995.571 547.645 996.131C545.778 1002.66 543.538 1011.72 540.925 1023.29C538.311 1034.86 537.005 1047.65 537.005 1061.65C537.005 1066.5 537.098 1071.73 537.285 1077.33C537.471 1082.74 537.938 1087.88 538.685 1092.73C539.431 1097.4 540.551 1101.22 542.045 1104.21C543.725 1107.2 545.871 1108.69 548.485 1108.69H548.765C550.258 1108.69 551.845 1107.94 553.525 1106.45C555.391 1104.96 557.351 1102.16 559.405 1098.05C562.205 1092.64 564.818 1085.64 567.245 1077.05C567.618 1075.37 568.365 1074.53 569.485 1074.53C570.418 1074.53 570.885 1075.65 570.885 1077.89V1079.01C570.511 1083.86 569.205 1089.37 566.965 1095.53C564.725 1101.69 561.551 1107.01 557.445 1111.49C553.525 1115.97 548.765 1118.21 543.165 1118.21ZM645.883 1118.21C639.163 1118.21 634.03 1115.41 630.483 1109.81C627.123 1104.21 624.79 1097.02 623.483 1088.25C622.363 1079.48 621.803 1070.33 621.803 1060.81C619.376 1069.77 616.296 1078.64 612.563 1087.41C608.83 1096.18 604.63 1103.46 599.963 1109.25C595.483 1115.04 590.723 1117.93 585.683 1117.93C581.203 1117.93 577.563 1115.88 574.763 1111.77C571.963 1107.48 569.91 1101.88 568.603 1094.97C567.296 1088.06 566.643 1080.6 566.643 1072.57C566.643 1066.78 567.11 1060.25 568.043 1052.97C568.976 1045.69 570.47 1038.41 572.523 1031.13C574.576 1023.85 577.376 1017.22 580.923 1011.25C584.656 1005.09 589.23 1000.14 594.643 996.411C600.056 992.677 606.496 990.811 613.963 990.811C618.256 990.811 621.71 991.744 624.323 993.611C624.696 983.717 625.163 974.197 625.723 965.051C626.283 955.904 626.936 948.717 627.683 943.491C628.243 939.944 628.99 935.931 629.923 931.451C631.043 926.971 632.536 922.677 634.403 918.571C636.456 914.277 638.883 910.731 641.683 907.931C644.67 905.131 648.216 903.731 652.323 903.731C657.55 903.731 661.47 905.037 664.083 907.651C666.696 910.077 668.47 913.251 669.403 917.171C670.523 920.904 671.083 924.917 671.083 929.211C671.083 931.637 670.99 934.157 670.803 936.771C670.616 939.197 670.336 941.437 669.963 943.491C668.843 952.637 666.696 962.717 663.523 973.731C660.35 984.744 656.616 995.477 652.323 1005.93C648.216 1016.2 644.203 1025.06 640.283 1032.53C640.096 1033.84 639.91 1036.73 639.723 1041.21C639.536 1045.69 639.443 1050.92 639.443 1056.89C639.443 1062.49 639.536 1068.37 639.723 1074.53C640.096 1080.5 640.75 1086.1 641.683 1091.33C642.616 1096.37 643.83 1100.57 645.323 1103.93C647.003 1107.1 649.15 1108.69 651.763 1108.69C654.376 1108.69 656.71 1107.48 658.763 1105.05C660.816 1102.44 662.683 1099.26 664.363 1095.53C666.043 1091.8 667.35 1088.25 668.283 1084.89C669.403 1081.34 670.243 1078.73 670.803 1077.05C671.176 1075.56 671.923 1074.81 673.043 1074.81C673.976 1074.81 674.443 1075.84 674.443 1077.89V1079.29C674.443 1084.33 673.23 1089.93 670.803 1096.09C668.563 1102.06 665.296 1107.29 661.003 1111.77C656.896 1116.06 651.856 1118.21 645.883 1118.21ZM639.723 1020.21C643.27 1012.56 646.63 1003.97 649.803 994.451C652.976 984.744 655.59 974.851 657.643 964.771C659.883 954.691 661.003 945.264 661.003 936.491C661.003 934.997 661.003 933.597 661.003 932.291C661.003 930.984 660.91 929.677 660.723 928.371C660.536 925.757 659.976 923.517 659.043 921.651C658.11 919.597 656.896 918.571 655.403 918.571C654.656 918.571 653.723 919.224 652.603 920.531C651.483 921.651 650.363 923.797 649.243 926.971C648.683 928.651 647.936 932.477 647.003 938.451C646.256 944.237 645.416 951.144 644.483 959.171C643.736 967.011 642.99 975.037 642.243 983.251C641.496 991.277 640.843 998.557 640.283 1005.09C639.91 1011.44 639.723 1015.92 639.723 1018.53V1020.21ZM595.483 1094.97C598.656 1094.97 601.643 1092.73 604.443 1088.25C607.243 1083.58 609.763 1077.98 612.003 1071.45C614.43 1064.92 616.39 1058.76 617.883 1052.97C619.936 1045.5 621.336 1038.04 622.083 1030.57C623.016 1022.92 623.576 1015.26 623.763 1007.61L624.043 999.771C622.923 999.211 621.616 998.931 620.123 998.931C616.016 998.931 611.816 1000.98 607.523 1005.09C603.23 1009.01 599.776 1013.68 597.163 1019.09C593.803 1026.18 591.283 1034.49 589.603 1044.01C588.11 1053.53 587.363 1062.49 587.363 1070.89C587.363 1072.2 587.363 1073.6 587.363 1075.09C587.363 1076.58 587.456 1077.98 587.643 1079.29C588.016 1084.89 588.95 1088.9 590.443 1091.33C591.936 1093.76 593.616 1094.97 595.483 1094.97ZM691.836 1117.93C687.729 1117.93 683.996 1116.25 680.636 1112.89C677.463 1109.53 675.129 1104.4 673.636 1097.49C672.889 1094.32 672.329 1090.3 671.956 1085.45C671.769 1080.6 671.676 1075.46 671.676 1070.05C671.676 1061.84 671.956 1053.34 672.516 1044.57C673.263 1035.8 674.196 1027.77 675.316 1020.49C676.436 1013.02 677.743 1007.33 679.236 1003.41C680.169 1001.17 681.849 999.211 684.276 997.531C686.889 995.851 690.249 995.011 694.356 995.011C697.156 995.011 699.956 995.384 702.756 996.131C702.196 998.184 701.076 1003.04 699.396 1010.69C697.903 1018.34 696.596 1026.84 695.476 1036.17C694.729 1042.7 694.076 1049.42 693.516 1056.33C692.956 1063.05 692.676 1069.4 692.676 1075.37C692.676 1083.02 693.329 1089.46 694.636 1094.69C695.943 1099.73 698.089 1102.25 701.076 1102.25C704.623 1102.25 707.703 1100.2 710.316 1096.09C713.116 1091.8 715.543 1086.48 717.596 1080.13C719.649 1073.78 721.236 1067.44 722.356 1061.09C724.036 1051.76 725.529 1041.77 726.836 1031.13C728.143 1020.3 729.636 1011.06 731.316 1003.41C731.876 1001.17 733.463 999.211 736.076 997.531C738.876 995.851 742.329 995.011 746.436 995.011C749.236 995.011 752.036 995.384 754.836 996.131C753.343 1000.24 751.849 1006.4 750.356 1014.61C749.049 1022.82 747.929 1031.88 746.996 1041.77C746.063 1051.66 745.596 1061.46 745.596 1071.17C745.596 1076.02 745.783 1081.34 746.156 1087.13C746.716 1092.92 747.743 1097.86 749.236 1101.97C750.916 1106.08 753.249 1108.13 756.236 1108.13H756.516C758.009 1108.13 759.596 1107.38 761.276 1105.89C763.143 1104.4 765.103 1101.6 767.156 1097.49C768.649 1094.88 769.956 1091.8 771.076 1088.25C772.196 1084.7 773.409 1080.88 774.716 1076.77C775.463 1075.09 776.209 1074.25 776.956 1074.25C777.889 1074.25 778.356 1075.37 778.356 1077.61V1078.73C777.983 1083.58 776.676 1089.09 774.436 1095.25C772.196 1101.41 769.023 1106.73 764.916 1111.21C760.996 1115.69 756.236 1117.93 750.636 1117.93C744.289 1117.93 739.249 1115.69 735.516 1111.21C731.783 1106.54 729.076 1100.94 727.396 1094.41C725.716 1087.69 724.689 1081.25 724.316 1075.09C723.009 1079.94 721.516 1084.8 719.836 1089.65C718.156 1094.5 716.103 1098.8 713.676 1102.53C706.956 1112.8 699.676 1117.93 691.836 1117.93ZM804.422 1119.61C798.076 1119.61 792.849 1117.93 788.742 1114.57C784.822 1111.21 781.742 1106.82 779.502 1101.41C777.449 1096 775.956 1090.12 775.022 1083.77C774.276 1077.24 773.902 1070.89 773.902 1064.73C773.902 1060.06 774.089 1055.77 774.462 1051.85C774.836 1047.74 775.116 1044.2 775.302 1041.21C776.236 1033.37 778.289 1025.53 781.462 1017.69C784.636 1009.66 789.302 1003.04 795.462 997.811C801.622 992.397 809.742 989.691 819.822 989.691C826.916 989.691 832.329 992.024 836.062 996.691C839.982 1001.17 842.689 1007.05 844.182 1014.33C845.676 1021.42 846.422 1028.98 846.422 1037.01C846.422 1039.25 846.329 1041.49 846.142 1043.73C846.142 1045.97 846.049 1048.21 845.862 1050.45C850.529 1055.68 856.129 1058.29 862.662 1058.29C867.702 1058.29 872.649 1056.42 877.502 1052.69C878.622 1051.76 879.649 1051.29 880.582 1051.29C881.329 1051.29 881.702 1051.76 881.702 1052.69C881.702 1054.37 881.236 1055.49 880.302 1056.05C877.316 1058.85 874.142 1060.9 870.782 1062.21C867.422 1063.52 864.062 1064.17 860.702 1064.17C854.916 1064.17 849.596 1062.49 844.742 1059.13C844.369 1062.68 843.809 1066.04 843.062 1069.21C842.502 1072.2 841.942 1074.81 841.382 1077.05C839.702 1082.84 837.182 1089.09 833.822 1095.81C830.649 1102.34 826.542 1107.94 821.502 1112.61C816.649 1117.28 810.956 1119.61 804.422 1119.61ZM813.662 1104.21C817.582 1104.21 820.849 1102.34 823.462 1098.61C826.262 1094.88 828.596 1090.58 830.462 1085.73C832.329 1080.88 833.636 1076.77 834.382 1073.41C834.942 1070.8 835.409 1067.81 835.782 1064.45C836.156 1061.09 836.436 1057.08 836.622 1052.41C834.009 1050.17 831.769 1046.16 829.902 1040.37C828.222 1034.4 827.382 1028.7 827.382 1023.29C827.382 1019.56 827.849 1016.29 828.782 1013.49C829.716 1010.5 831.116 1008.54 832.982 1007.61C831.862 1004.81 830.369 1002.2 828.502 999.771C826.636 997.157 824.022 995.851 820.662 995.851C817.489 995.851 814.596 997.717 811.982 1001.45C809.556 1005.18 807.409 1009.66 805.542 1014.89C803.676 1020.12 802.182 1025.06 801.062 1029.73C800.129 1034.4 799.569 1037.66 799.382 1039.53C799.196 1041.58 798.916 1044.76 798.542 1049.05C798.169 1053.16 797.982 1057.73 797.982 1062.77C797.982 1069.12 798.356 1075.46 799.102 1081.81C800.036 1088.16 801.622 1093.48 803.862 1097.77C806.102 1102.06 809.369 1104.21 813.662 1104.21ZM996.345 1127.45C984.398 1127.45 973.291 1125.12 963.025 1120.45C952.758 1115.78 944.265 1108.5 937.545 1098.61C930.825 1088.53 926.625 1075.56 924.945 1059.69C924.758 1057.64 924.571 1055.58 924.385 1053.53C924.385 1051.48 924.385 1049.52 924.385 1047.65C924.385 1035.14 926.251 1022.73 929.985 1010.41C933.905 997.904 939.318 986.144 946.225 975.131C953.131 964.117 961.345 954.317 970.865 945.731C980.385 937.144 990.838 930.424 1002.22 925.571C1013.8 920.531 1026.02 918.011 1038.9 918.011H1043.1C1049.82 918.197 1056.08 919.411 1061.86 921.651C1067.84 923.891 1072.6 927.437 1076.14 932.291C1079.88 936.957 1081.74 943.397 1081.74 951.611C1081.74 960.757 1079.04 969.717 1073.62 978.491C1068.21 987.077 1061.02 994.917 1052.06 1002.01C1043.1 1009.1 1033.21 1014.8 1022.38 1019.09C1011.56 1023.2 1000.64 1025.25 989.625 1025.25C988.878 1025.25 988.131 1025.25 987.385 1025.25C986.638 1025.06 985.798 1024.97 984.865 1024.97C982.438 1024.78 980.665 1023.85 979.545 1022.17C978.611 1020.49 978.145 1019.09 978.145 1017.97C989.905 1017.97 1001.48 1016.1 1012.86 1012.37C1024.44 1008.64 1034.8 1002.94 1043.94 995.291C1053.28 987.451 1060.46 977.464 1065.5 965.331C1068.12 958.984 1069.42 953.197 1069.42 947.971C1069.42 942.557 1067.74 938.077 1064.38 934.531C1061.21 930.797 1055.7 928.744 1047.86 928.371H1045.9C1038.44 928.371 1030.32 930.517 1021.54 934.811C1012.77 938.917 1004.09 944.797 995.505 952.451C986.918 960.104 979.078 969.157 971.985 979.611C965.078 990.064 959.478 1001.73 955.185 1014.61C950.891 1027.3 948.745 1040.84 948.745 1055.21V1057.73C948.745 1072.48 950.985 1084.24 955.465 1093.01C960.131 1101.6 966.291 1107.76 973.945 1111.49C981.785 1115.22 990.278 1117.09 999.425 1117.09C1000.92 1117.09 1002.32 1117.09 1003.62 1117.09C1005.12 1117.09 1006.52 1117 1007.82 1116.81C1017.16 1115.88 1026.49 1113.08 1035.82 1108.41C1045.16 1103.56 1053.84 1097.58 1061.86 1090.49C1069.89 1083.4 1076.52 1075.65 1081.74 1067.25C1087.16 1058.85 1090.42 1050.64 1091.54 1042.61C1091.73 1041.68 1092.2 1041.21 1092.94 1041.21C1093.69 1041.21 1094.44 1041.49 1095.18 1042.05C1095.93 1042.61 1096.3 1043.26 1096.3 1044.01V1044.29C1096.3 1052.69 1094.53 1060.44 1090.98 1067.53C1087.62 1074.62 1083.7 1081.16 1079.22 1087.13C1070.82 1098.33 1060 1107.38 1046.74 1114.29C1033.68 1121.2 1020.24 1125.4 1006.42 1126.89C1004.74 1127.08 1003.06 1127.17 1001.38 1127.17C999.705 1127.36 998.025 1127.45 996.345 1127.45ZM1154.67 1118.21C1148.51 1118.21 1143.66 1116.25 1140.11 1112.33C1136.57 1108.22 1134.05 1103 1132.55 1096.65C1131.25 1090.12 1130.59 1083.12 1130.59 1075.65C1130.59 1067.62 1131.06 1059.78 1131.99 1052.13C1133.11 1044.29 1134.23 1037.38 1135.35 1031.41C1136.66 1025.44 1137.59 1021.33 1138.15 1019.09C1132.93 1018.72 1128.82 1017.88 1125.83 1016.57C1122.85 1015.26 1120.33 1013.68 1118.27 1011.81C1117.53 1020.77 1116.31 1030.38 1114.63 1040.65C1113.14 1050.92 1111.37 1060.81 1109.31 1070.33C1107.26 1079.66 1105.02 1087.69 1102.59 1094.41C1101.85 1096.84 1100.63 1098.05 1098.95 1098.05C1097.65 1098.05 1096.99 1097.21 1096.99 1095.53C1096.99 1095.16 1096.99 1094.69 1096.99 1094.13C1097.18 1093.57 1097.37 1093.01 1097.55 1092.45C1100.54 1083.86 1103.06 1074.53 1105.11 1064.45C1107.17 1054.18 1108.75 1044.29 1109.87 1034.77C1110.99 1025.25 1111.55 1017.32 1111.55 1010.97V1007.89C1106.89 1005.84 1103.43 1002.85 1101.19 998.931C1099.14 995.011 1098.11 991.277 1098.11 987.731C1098.11 985.117 1098.58 982.784 1099.51 980.731C1100.63 978.677 1102.22 977.651 1104.27 977.651H1104.83C1107.45 977.651 1109.78 979.517 1111.83 983.251C1113.89 986.797 1115.57 990.811 1116.87 995.291C1118.18 999.584 1118.83 1003.04 1118.83 1005.65C1121.07 1007.33 1123.5 1008.54 1126.11 1009.29C1128.91 1010.04 1131.25 1010.41 1133.11 1010.41C1135.54 1010.41 1137.13 1010.04 1137.87 1009.29C1139.37 1007.8 1141.14 1005.65 1143.19 1002.85C1145.43 1000.05 1148.89 998.651 1153.55 998.651C1156.73 998.651 1160.55 999.584 1165.03 1001.45C1162.79 1006.12 1160.74 1011.44 1158.87 1017.41C1157.01 1023.2 1155.42 1029.36 1154.11 1035.89C1153.93 1037.38 1153.46 1040.37 1152.71 1044.85C1151.97 1049.33 1151.31 1054.46 1150.75 1060.25C1150.19 1066.04 1149.91 1071.82 1149.91 1077.61C1149.91 1085.82 1150.75 1093.1 1152.43 1099.45C1154.3 1105.61 1157.66 1108.69 1162.51 1108.69C1165.5 1108.69 1168.11 1107.48 1170.35 1105.05C1172.59 1102.62 1174.55 1099.64 1176.23 1096.09C1177.91 1092.36 1179.31 1088.81 1180.43 1085.45C1181.55 1081.9 1182.39 1079.1 1182.95 1077.05C1183.33 1075.37 1184.07 1074.53 1185.19 1074.53C1186.13 1074.53 1186.59 1075.56 1186.59 1077.61V1079.01C1186.59 1087.6 1185.01 1094.88 1181.83 1100.85C1178.85 1106.64 1174.93 1111.02 1170.07 1114.01C1165.22 1116.81 1160.09 1118.21 1154.67 1118.21ZM1220.78 1122.13C1211.82 1122.13 1204.54 1119.42 1198.94 1114.01C1193.53 1108.41 1189.52 1101.6 1186.9 1093.57C1184.48 1085.36 1183.26 1077.33 1183.26 1069.49C1183.26 1060.53 1184.2 1051.57 1186.06 1042.61C1187.93 1033.46 1190.82 1025.16 1194.74 1017.69C1198.85 1010.22 1203.98 1004.25 1210.14 999.771C1216.3 995.104 1223.58 992.771 1231.98 992.771C1237.96 992.771 1242.62 994.544 1245.98 998.091C1249.34 1001.64 1251.02 1006.86 1251.02 1013.77C1251.02 1023.1 1248.69 1031.41 1244.02 1038.69C1239.54 1045.78 1233.85 1051.57 1226.94 1056.05C1220.04 1060.53 1212.85 1063.61 1205.38 1065.29V1066.69C1205.38 1074.34 1206.13 1081.53 1207.62 1088.25C1209.3 1094.78 1211.92 1100.1 1215.46 1104.21C1219.2 1108.13 1224.05 1110.09 1230.02 1110.09C1237.3 1110.09 1242.9 1107.1 1246.82 1101.13C1250.74 1094.97 1253.82 1087.22 1256.06 1077.89C1256.25 1077.14 1256.53 1076.49 1256.9 1075.93C1257.46 1075.18 1257.93 1074.81 1258.3 1074.81C1259.98 1074.81 1260.73 1076.02 1260.54 1078.45C1259.98 1083.49 1258.86 1088.25 1257.18 1092.73C1255.5 1097.21 1253.73 1101.04 1251.86 1104.21C1248.32 1110 1244.02 1114.38 1238.98 1117.37C1234.13 1120.54 1228.06 1122.13 1220.78 1122.13ZM1205.66 1058.85C1211.64 1057.36 1216.86 1054.46 1221.34 1050.17C1225.82 1045.69 1229.28 1040.46 1231.7 1034.49C1234.32 1028.52 1235.62 1022.45 1235.62 1016.29V1014.89C1235.62 1011.53 1235.06 1008.36 1233.94 1005.37C1233.01 1002.38 1231.14 1000.89 1228.34 1000.89C1224.98 1000.89 1222 1002.57 1219.38 1005.93C1216.96 1009.1 1214.81 1013.21 1212.94 1018.25C1211.26 1023.29 1209.86 1028.52 1208.74 1033.93C1207.62 1039.34 1206.78 1044.29 1206.22 1048.77C1205.85 1053.25 1205.66 1056.52 1205.66 1058.57V1058.85ZM1336.06 1118.21C1330.27 1118.21 1325.61 1116.44 1322.06 1112.89C1318.51 1109.16 1315.71 1104.49 1313.66 1098.89C1311.79 1093.1 1310.49 1087.32 1309.74 1081.53C1308.99 1075.56 1308.62 1070.33 1308.62 1065.85C1306.38 1074.25 1303.49 1082.46 1299.94 1090.49C1296.58 1098.52 1292.85 1105.14 1288.74 1110.37C1284.63 1115.41 1280.15 1117.93 1275.3 1117.93H1275.02C1270.54 1117.93 1266.81 1115.88 1263.82 1111.77C1260.83 1107.48 1258.59 1101.88 1257.1 1094.97C1255.61 1088.06 1254.86 1080.6 1254.86 1072.57V1069.77C1254.86 1062.3 1255.51 1054.09 1256.82 1045.13C1258.13 1035.98 1260.46 1027.3 1263.82 1019.09C1267.18 1010.88 1271.75 1004.16 1277.54 998.931C1283.51 993.517 1291.07 990.811 1300.22 990.811C1303.77 990.811 1306.94 991.651 1309.74 993.331C1312.73 994.824 1314.87 997.064 1316.18 1000.05C1317.49 998.557 1319.26 997.344 1321.5 996.411C1323.74 995.477 1326.45 995.011 1329.62 995.011C1330.74 995.011 1331.95 995.104 1333.26 995.291C1334.75 995.477 1336.25 995.757 1337.74 996.131C1336.62 1000.42 1335.31 1006.3 1333.82 1013.77C1332.33 1021.24 1331.02 1029.45 1329.9 1038.41C1328.97 1047.18 1328.5 1055.77 1328.5 1064.17V1065.29C1328.5 1068.84 1328.69 1073.04 1329.06 1077.89C1329.43 1082.74 1330.09 1087.5 1331.02 1092.17C1331.95 1096.84 1333.26 1100.76 1334.94 1103.93C1336.62 1107.1 1338.77 1108.69 1341.38 1108.69H1341.66C1343.15 1108.69 1344.74 1107.94 1346.42 1106.45C1348.29 1104.96 1350.25 1102.16 1352.3 1098.05C1355.1 1092.64 1357.71 1085.64 1360.14 1077.05C1360.51 1075.37 1361.26 1074.53 1362.38 1074.53C1363.31 1074.53 1363.78 1075.65 1363.78 1077.89V1079.01C1363.41 1083.86 1362.1 1089.37 1359.86 1095.53C1357.62 1101.69 1354.45 1107.01 1350.34 1111.49C1346.42 1115.97 1341.66 1118.21 1336.06 1118.21ZM1284.82 1094.97C1287.81 1094.97 1290.51 1092.82 1292.94 1088.53C1295.55 1084.24 1297.89 1079.01 1299.94 1072.85C1301.99 1066.69 1303.77 1060.72 1305.26 1054.93C1307.5 1046.34 1308.99 1037.66 1309.74 1028.89C1310.49 1019.93 1312.07 1011.16 1314.5 1002.57C1312.26 1000.14 1309.74 998.931 1306.94 998.931C1302.83 998.931 1298.63 1000.98 1294.34 1005.09C1290.05 1009.2 1286.69 1013.86 1284.26 1019.09C1281.27 1025.62 1279.03 1033.28 1277.54 1042.05C1276.23 1050.82 1275.58 1059.22 1275.58 1067.25C1275.58 1069.3 1275.58 1071.36 1275.58 1073.41C1275.77 1075.46 1275.95 1077.42 1276.14 1079.29C1276.51 1084.89 1277.54 1088.9 1279.22 1091.33C1281.09 1093.76 1282.95 1094.97 1284.82 1094.97ZM1394.05 1119.61C1383.79 1119.61 1376.23 1116.62 1371.37 1110.65C1366.71 1104.49 1363.72 1096.18 1362.41 1085.73C1361.11 1075.28 1360.45 1063.52 1360.45 1050.45C1360.45 1045.04 1360.55 1039.25 1360.73 1033.09C1360.92 1026.93 1361.2 1021.14 1361.57 1015.73C1362.13 1010.32 1362.6 1006.21 1362.97 1003.41H1354.29C1352.8 1003.41 1352.05 1002.48 1352.05 1000.61C1352.05 999.677 1352.43 998.744 1353.17 997.811C1353.73 996.691 1354.48 996.131 1355.41 996.131H1363.53C1364.28 987.357 1365.12 979.424 1366.05 972.331C1366.99 965.237 1368.11 960.197 1369.41 957.211C1370.35 955.157 1371.84 953.384 1373.89 951.891C1376.13 950.211 1379.12 949.371 1382.85 949.371C1383.97 949.371 1385.19 949.464 1386.49 949.651C1387.99 949.837 1389.39 950.117 1390.69 950.491C1389.76 953.664 1388.64 959.451 1387.33 967.851C1386.21 976.064 1385.19 985.491 1384.25 996.131H1406.65C1408.33 996.131 1409.17 997.157 1409.17 999.211C1409.17 1000.14 1408.89 1001.08 1408.33 1002.01C1407.77 1002.94 1406.93 1003.41 1405.81 1003.41H1383.41C1382.85 1009.76 1382.29 1016.38 1381.73 1023.29C1381.17 1030.2 1380.8 1036.92 1380.61 1043.45C1380.61 1045.32 1380.52 1047.37 1380.33 1049.61C1380.33 1051.66 1380.33 1053.9 1380.33 1056.33C1380.33 1061.74 1380.52 1067.53 1380.89 1073.69C1381.27 1079.85 1382.11 1085.64 1383.41 1091.05C1384.72 1096.46 1386.59 1100.85 1389.01 1104.21C1391.44 1107.57 1394.61 1109.25 1398.53 1109.25C1400.4 1109.25 1402.27 1108.88 1404.13 1108.13C1406 1107.2 1407.59 1106.08 1408.89 1104.77C1412.63 1101.22 1415.43 1096.46 1417.29 1090.49C1419.35 1084.52 1421.12 1078.45 1422.61 1072.29C1423.17 1069.68 1424.11 1068.37 1425.41 1068.37C1426.35 1068.37 1426.81 1069.49 1426.81 1071.73C1426.81 1072.29 1426.72 1072.94 1426.53 1073.69C1426.53 1074.44 1426.44 1075.28 1426.25 1076.21C1425.13 1082.56 1423.36 1089.09 1420.93 1095.81C1418.69 1102.53 1415.43 1108.22 1411.13 1112.89C1407.03 1117.37 1401.33 1119.61 1394.05 1119.61ZM1448.02 975.131C1444.47 975.131 1441.3 973.824 1438.5 971.211C1435.88 968.597 1434.58 965.424 1434.58 961.691C1434.58 957.957 1435.88 954.784 1438.5 952.171C1441.3 949.557 1444.47 948.251 1448.02 948.251C1451.75 948.251 1454.92 949.557 1457.54 952.171C1460.15 954.784 1461.46 957.957 1461.46 961.691C1461.46 965.424 1460.15 968.597 1457.54 971.211C1454.92 973.824 1451.75 975.131 1448.02 975.131ZM1446.06 1118.21C1439.34 1118.21 1434.02 1115.41 1430.1 1109.81C1426.36 1104.02 1423.66 1096.74 1421.98 1087.97C1420.48 1079.01 1419.74 1069.68 1419.74 1059.97C1419.74 1051.94 1420.11 1044.2 1420.86 1036.73C1421.79 1029.08 1422.82 1022.45 1423.94 1016.85C1425.24 1011.06 1426.46 1006.96 1427.58 1004.53C1428.7 1002.29 1430.47 1000.24 1432.9 998.371C1435.51 996.317 1438.96 995.291 1443.26 995.291C1445.68 995.291 1448.11 995.571 1450.54 996.131C1448.67 1002.66 1446.43 1011.72 1443.82 1023.29C1441.2 1034.86 1439.9 1047.65 1439.9 1061.65C1439.9 1066.5 1439.99 1071.73 1440.18 1077.33C1440.36 1082.74 1440.83 1087.88 1441.58 1092.73C1442.32 1097.4 1443.44 1101.22 1444.94 1104.21C1446.62 1107.2 1448.76 1108.69 1451.38 1108.69H1451.66C1453.15 1108.69 1454.74 1107.94 1456.42 1106.45C1458.28 1104.96 1460.24 1102.16 1462.3 1098.05C1465.1 1092.64 1467.71 1085.64 1470.14 1077.05C1470.51 1075.37 1471.26 1074.53 1472.38 1074.53C1473.31 1074.53 1473.78 1075.65 1473.78 1077.89V1079.01C1473.4 1083.86 1472.1 1089.37 1469.86 1095.53C1467.62 1101.69 1464.44 1107.01 1460.34 1111.49C1456.42 1115.97 1451.66 1118.21 1446.06 1118.21ZM1503.97 1117.37C1499.87 1117.37 1496.51 1115.22 1493.89 1110.93C1491.47 1106.45 1489.6 1100.66 1488.29 1093.57C1486.99 1086.29 1485.96 1078.36 1485.21 1069.77C1484.47 1061.18 1483.91 1052.78 1483.53 1044.57C1482.41 1049.98 1481.11 1055.86 1479.61 1062.21C1478.12 1068.37 1476.35 1074.9 1474.29 1081.81C1473.73 1083.86 1473.17 1085.92 1472.61 1087.97C1472.05 1089.84 1471.4 1091.7 1470.65 1093.57C1469.91 1096 1468.79 1097.21 1467.29 1097.21C1465.99 1097.21 1465.33 1096.09 1465.33 1093.85C1465.33 1092.36 1465.71 1090.58 1466.45 1088.53L1469.53 1079.01C1472.52 1069.68 1474.76 1060.81 1476.25 1052.41C1477.75 1043.82 1478.87 1035.8 1479.61 1028.33C1479.8 1026.65 1479.89 1024.97 1479.89 1023.29C1480.08 1021.42 1480.17 1019.65 1480.17 1017.97C1480.17 1015.17 1480.08 1012.56 1479.89 1010.13C1479.71 1007.7 1479.52 1005.74 1479.33 1004.25C1482.32 1000.89 1486.15 999.211 1490.81 999.211H1491.09C1495.95 999.211 1499.03 1002.2 1500.33 1008.17C1501.83 1014.14 1502.57 1021.52 1502.57 1030.29V1037.57C1502.57 1040 1502.67 1043.64 1502.85 1048.49C1503.04 1053.34 1503.41 1058.66 1503.97 1064.45C1504.53 1070.24 1505.28 1075.74 1506.21 1080.97C1507.15 1086.2 1508.36 1090.58 1509.85 1094.13C1511.35 1097.49 1513.12 1099.17 1515.17 1099.17C1518.35 1099.17 1521.61 1096.28 1524.97 1090.49C1528.33 1084.52 1530.95 1077.8 1532.81 1070.33C1533.19 1068.28 1533.65 1066.04 1534.21 1063.61C1534.77 1061.18 1535.24 1058.57 1535.61 1055.77C1534.68 1052.04 1533.93 1048.02 1533.37 1043.73C1532.81 1039.44 1532.44 1035.42 1532.25 1031.69C1532.07 1027.77 1531.97 1024.88 1531.97 1023.01C1531.97 1020.21 1532.07 1016.57 1532.25 1012.09C1532.44 1007.61 1532.91 1003.13 1533.65 998.651C1534.59 994.171 1535.89 990.437 1537.57 987.451C1539.25 984.277 1541.59 982.691 1544.57 982.691C1547.19 982.691 1549.43 984.557 1551.29 988.291C1552.6 991.091 1553.25 995.571 1553.25 1001.73C1553.25 1009.2 1552.32 1017.97 1550.45 1028.05C1548.59 1037.94 1546.07 1048.12 1542.89 1058.57C1544.57 1060.62 1546.63 1062.21 1549.05 1063.33C1551.48 1064.26 1553.91 1064.73 1556.33 1064.73C1562.49 1064.73 1568.09 1062.86 1573.13 1059.13C1574.44 1058.38 1575.56 1058.01 1576.49 1058.01C1577.05 1058.01 1577.33 1058.48 1577.33 1059.41C1577.33 1060.9 1576.77 1062.02 1575.65 1062.77C1569.49 1068 1562.59 1070.61 1554.93 1070.61C1549.33 1070.61 1544.57 1068.93 1540.65 1065.57C1537.48 1074.72 1533.93 1083.3 1530.01 1091.33C1526.09 1099.17 1521.89 1105.52 1517.41 1110.37C1513.12 1115.04 1508.64 1117.37 1503.97 1117.37ZM1596.84 1119.61C1590.5 1119.61 1585.27 1117.93 1581.16 1114.57C1577.24 1111.21 1574.16 1106.82 1571.92 1101.41C1569.87 1096 1568.38 1090.12 1567.44 1083.77C1566.7 1077.24 1566.32 1070.89 1566.32 1064.73C1566.32 1060.06 1566.51 1055.77 1566.88 1051.85C1567.26 1047.74 1567.54 1044.2 1567.72 1041.21C1568.66 1033.37 1570.71 1025.53 1573.88 1017.69C1577.06 1009.66 1581.72 1003.04 1587.88 997.811C1594.04 992.397 1602.16 989.691 1612.24 989.691C1619.34 989.691 1624.75 992.024 1628.48 996.691C1632.4 1001.17 1635.11 1007.05 1636.6 1014.33C1638.1 1021.42 1638.84 1028.98 1638.84 1037.01C1638.84 1039.25 1638.75 1041.49 1638.56 1043.73C1638.56 1045.97 1638.47 1048.21 1638.28 1050.45C1642.95 1055.68 1648.55 1058.29 1655.08 1058.29C1660.12 1058.29 1665.07 1056.42 1669.92 1052.69C1671.04 1051.76 1672.07 1051.29 1673 1051.29C1673.75 1051.29 1674.12 1051.76 1674.12 1052.69C1674.12 1054.37 1673.66 1055.49 1672.72 1056.05C1669.74 1058.85 1666.56 1060.9 1663.2 1062.21C1659.84 1063.52 1656.48 1064.17 1653.12 1064.17C1647.34 1064.17 1642.02 1062.49 1637.16 1059.13C1636.79 1062.68 1636.23 1066.04 1635.48 1069.21C1634.92 1072.2 1634.36 1074.81 1633.8 1077.05C1632.12 1082.84 1629.6 1089.09 1626.24 1095.81C1623.07 1102.34 1618.96 1107.94 1613.92 1112.61C1609.07 1117.28 1603.38 1119.61 1596.84 1119.61ZM1606.08 1104.21C1610 1104.21 1613.27 1102.34 1615.88 1098.61C1618.68 1094.88 1621.02 1090.58 1622.88 1085.73C1624.75 1080.88 1626.06 1076.77 1626.8 1073.41C1627.36 1070.8 1627.83 1067.81 1628.2 1064.45C1628.58 1061.09 1628.86 1057.08 1629.04 1052.41C1626.43 1050.17 1624.19 1046.16 1622.32 1040.37C1620.64 1034.4 1619.8 1028.7 1619.8 1023.29C1619.8 1019.56 1620.27 1016.29 1621.2 1013.49C1622.14 1010.5 1623.54 1008.54 1625.4 1007.61C1624.28 1004.81 1622.79 1002.2 1620.92 999.771C1619.06 997.157 1616.44 995.851 1613.08 995.851C1609.91 995.851 1607.02 997.717 1604.4 1001.45C1601.98 1005.18 1599.83 1009.66 1597.96 1014.89C1596.1 1020.12 1594.6 1025.06 1593.48 1029.73C1592.55 1034.4 1591.99 1037.66 1591.8 1039.53C1591.62 1041.58 1591.34 1044.76 1590.96 1049.05C1590.59 1053.16 1590.4 1057.73 1590.4 1062.77C1590.4 1069.12 1590.78 1075.46 1591.52 1081.81C1592.46 1088.16 1594.04 1093.48 1596.28 1097.77C1598.52 1102.06 1601.79 1104.21 1606.08 1104.21Z" fill="#4B9600"/>
<g clip-path="url(#clip0_386_430)">
<path d="M1009.44 71.1088C1009.44 71.1088 1015 151.19 1051.01 187.63C1095.17 143.998 1070.54 79.8778 1040.59 39.3734C1025.06 18.3649 1002.98 -0.0175781 1002.98 -0.0175781C1002.98 -0.0175781 908.373 169.192 1031.82 202.087C1031.82 202.087 991.794 151.839 1009.44 71.1088Z" fill="#4B9600"/>
<path d="M591.31 450.837C579.172 587.56 683.496 707.95 824.331 719.763C965.157 731.548 1089.18 630.263 1101.32 493.532C1104.97 452.294 1098.03 412.551 1082.71 376.816C1105.49 419.297 1116.51 468.338 1111.97 519.579C1099.2 663.196 968.932 769.584 821.005 757.196C673.059 744.817 563.487 618.339 576.247 474.723C580.787 423.491 600.314 376.992 630.24 338.938C608.84 371.592 594.981 409.6 591.31 450.837Z" fill="#EC8732"/>
<path d="M1167.22 542.787C1191.12 382.365 1076.56 233.487 911.308 210.27C884.287 206.475 813.311 200.304 759.787 241.941C840.121 209.75 940.975 236.206 960.053 242.07C940.067 315.851 828.909 320.426 764.958 316.872C687.883 312.594 654.278 338.938 654.278 338.938C654.278 338.938 669.446 225.219 780.527 178.59C878.352 137.511 943.67 199.859 943.67 199.859C1117.25 224.254 1237.59 380.63 1212.48 549.153C1187.36 717.675 1026.28 834.521 852.699 810.126C790.783 801.44 735.634 775.922 691.458 739.064C729.66 765.798 774.869 784.246 824.713 791.252C989.959 814.459 1143.3 703.237 1167.22 542.787Z" fill="#4B9600"/>
<mask id="mask0_386_430" style="mask-type:luminance" maskUnits="userSpaceOnUse" x="653" y="347" width="376" height="257">
<path d="M653.026 347.541H1028.69V603.383H653.026V347.541Z" fill="white"/>
</mask>
<g mask="url(#mask0_386_430)">
<path d="M1024.54 407.726L797.521 412.523L1017.14 417.172L965.768 534.733L797.999 532.153C796.642 530.622 794.931 529.369 792.924 528.534L729.154 356.727C727.367 351.957 722.693 348.487 717.149 348.394H716.719L667.477 347.633C667.343 347.633 667.152 347.633 667.028 347.633C659.248 347.753 653.054 353.971 653.178 361.515C653.293 369.059 659.697 375.081 667.477 374.961L707.754 374.339L774.057 536.626C773.99 536.793 773.923 536.951 773.866 537.127L757.923 588.173L757.55 589.36C757.206 590.465 757.063 591.643 757.13 592.859C757.455 598.501 762.425 602.816 768.236 602.5L962.977 591.838L784.513 582.067L798.085 551.491L970.518 548.837H970.748C973.539 548.791 976.148 547.139 977.209 544.458L1029.12 414.333L1029.2 414.138C1029.41 413.591 1029.53 412.978 1029.52 412.347C1029.46 409.74 1027.23 407.67 1024.54 407.726Z" fill="#4B9600"/>
</g>
<mask id="mask1_386_430" style="mask-type:luminance" maskUnits="userSpaceOnUse" x="768" y="603" width="62" height="60">
<path d="M768.532 603.383H829.703V662.446H768.532V603.383Z" fill="white"/>
</mask>
<g mask="url(#mask1_386_430)">
<path d="M799.127 604.338C782.64 604.338 769.278 617.31 769.278 633.308C769.278 649.306 782.64 662.278 799.127 662.278C815.605 662.278 828.967 649.306 828.967 633.308C828.967 617.31 815.605 604.338 799.127 604.338Z" fill="#4B9600"/>
</g>
<mask id="mask2_386_430" style="mask-type:luminance" maskUnits="userSpaceOnUse" x="888" y="603" width="62" height="60">
<path d="M888.426 603.383H949.596V662.446H888.426V603.383Z" fill="white"/>
</mask>
<g mask="url(#mask2_386_430)">
<path d="M919.069 604.338C902.581 604.338 889.229 617.31 889.229 633.308C889.229 649.306 902.581 662.278 919.069 662.278C935.546 662.278 948.908 649.306 948.908 633.308C948.908 617.31 935.546 604.338 919.069 604.338Z" fill="#4B9600"/>
</g>
</g>
<defs>
<clipPath id="clip0_386_430">
<rect width="677.155" height="837.371" fill="white" transform="translate(563)"/>
</clipPath>
</defs>
</svg>
