<svg width="872" height="800" viewBox="0 0 872 800" fill="none" xmlns="http://www.w3.org/2000/svg">
<path d="M385.386 523.539C472.137 408.696 379.516 326.054 304.423 267.328C254.907 228.586 223.657 190.504 223.657 190.504C223.657 190.504 91.3416 516.039 369.629 542.579C369.629 542.579 258.186 457.988 261.351 342.611C261.351 342.611 280.616 440.268 385.386 523.539Z" fill="#7CBF39"/>
<path d="M524.866 694.261C654.394 719.937 690.514 616.966 712.779 536.525C727.47 483.459 748.326 444.969 748.326 444.969C748.326 444.969 422.998 461.148 502.895 688.931C502.895 688.931 533.736 570.488 632.964 530.488C632.964 530.488 557.051 581.525 524.866 694.261Z" fill="#7CBF39"/>
<path d="M183.077 572.028C75.2408 404.245 129.478 184.308 304.226 80.786C402.503 22.547 517.98 13.5376 619.405 46.6665C502.912 0.0627083 365.53 6.1319 249.939 74.6225C59.2384 187.61 0.0327735 427.641 117.723 610.755C181.24 709.591 283.338 771.619 393.83 790.016C389.075 768.066 385.665 745.928 383.697 723.711C303.128 698.412 231.068 646.714 183.077 572.028Z" fill="#7CBF39"/>
<mask id="mask0_382_244" style="mask-type:luminance" maskUnits="userSpaceOnUse" x="402" y="140" width="466" height="656">
<path d="M402.946 140.881H867.786V795.975H402.946V140.881Z" fill="white"/>
</mask>
<g mask="url(#mask0_382_244)">
<path d="M694.695 688.35C628.308 727.689 554.067 744.498 481.63 741.086C438.279 605.284 455.429 457.438 528.702 334.262C549.181 305.174 614.453 224.026 712.156 212.784C712.156 212.784 614.305 245.237 543.705 356.84C674.626 422.595 746.342 322.642 795.972 242.784C828.715 190.111 863.425 154.906 863.425 154.906C863.425 154.906 536.31 82.5636 521.98 314.513C413.39 451.919 377.991 629.56 422.391 793.79C438.443 795.347 454.626 795.881 470.825 795.598L470.874 795.708C473.809 795.661 476.76 795.535 479.695 795.41C480.728 795.378 481.761 795.362 482.794 795.315C488.598 795.048 494.402 794.639 500.19 794.136C500.747 794.089 501.305 794.073 501.862 794.026L501.846 793.979C561.789 788.491 621.372 770.111 676.085 737.705C791.676 669.215 858.932 554.042 867.786 433.161C853.145 535.064 792.988 630.126 694.695 688.35Z" fill="#4B9600"/>
</g>
</svg>
