<svg width="1721" height="1035" viewBox="0 0 1721 1035" fill="none" xmlns="http://www.w3.org/2000/svg">
<path d="M240.222 979.4C231.822 979.4 223.222 976.7 214.422 971.3C205.622 965.9 197.122 958.9 188.922 950.3C180.722 941.5 173.322 932.1 166.722 922.1C160.322 912.1 155.222 902.4 151.422 893C147.622 883.6 145.722 875.6 145.722 869V868.4C145.722 864 146.922 861.8 149.322 861.8H150.822L151.122 862.1H151.422C156.222 863.9 161.822 864.8 168.222 864.8C175.222 864.8 182.522 863.8 190.122 861.8C197.922 859.8 204.622 857.4 210.222 854.6C216.222 851.4 222.722 847.6 229.722 843.2C236.722 838.8 242.722 833.5 247.722 827.3C252.722 821.1 255.222 813.9 255.222 805.7C255.222 799.5 253.022 794.5 248.622 790.7C244.422 786.9 238.822 784 231.822 782C224.822 780 217.322 778.6 209.322 777.8C201.322 777 193.622 776.6 186.222 776.6C180.622 776.6 175.422 776.7 170.622 776.9C165.822 777.1 162.022 777.4 159.222 777.8C155.022 778.2 149.222 779 141.822 780.2C134.422 781.2 126.322 782.7 117.522 784.7C108.922 786.7 100.222 789.1 91.4219 791.9C82.8219 794.5 74.8219 797.6 67.4219 801.2C60.0219 804.6 54.1219 808.5 49.7219 812.9C45.3219 817.1 43.1219 821.8 43.1219 827C43.1219 832 45.2219 836.1 49.4219 839.3C53.4219 842.3 58.6219 843.8 65.0219 843.8C71.6219 843.8 79.0219 842.1 87.2219 838.7C95.6219 835.1 104.122 829.3 112.722 821.3C113.122 820.9 113.422 820.7 113.622 820.7C114.222 820.7 114.522 821.2 114.522 822.2C114.522 823.2 114.022 824.8 113.022 827C112.222 829 110.922 830.8 109.122 832.4C102.122 838.8 94.3219 843.6 85.7219 846.8C77.3219 849.8 69.1219 851.3 61.1219 851.3C59.1219 851.3 57.1219 851.2 55.1219 851C52.9219 850.8 50.9219 850.5 49.1219 850.1C42.3219 848.5 37.0219 845.3 33.2219 840.5C29.2219 835.7 27.2219 830.2 27.2219 824C27.2219 815.2 30.3219 807.6 36.5219 801.2C42.5219 794.6 50.5219 789 60.5219 784.4C70.5219 779.6 81.4219 775.7 93.2219 772.7C105.222 769.7 117.022 767.3 128.622 765.5C133.422 764.7 138.922 764.1 145.122 763.7C151.322 763.3 157.922 763.1 164.922 763.1C176.322 763.1 188.022 763.9 200.022 765.5C212.222 766.9 223.522 769.5 233.922 773.3C244.322 776.9 252.722 781.9 259.122 788.3C265.522 794.7 268.722 802.8 268.722 812.6C268.722 821.4 266.222 829.7 261.222 837.5C256.222 845.3 249.422 852.2 240.822 858.2C232.422 864 222.922 868.6 212.322 872C201.722 875.2 190.922 876.8 179.922 876.8C175.122 876.8 170.422 876.5 165.822 875.9C164.622 875.7 163.522 875.5 162.522 875.3C161.522 875.1 160.522 874.9 159.522 874.7C162.122 880.3 165.522 886.7 169.722 893.9C174.122 900.9 179.122 908.1 184.722 915.5C190.522 922.7 196.622 929.4 203.022 935.6C209.622 941.8 216.322 946.8 223.122 950.6C229.922 954.4 236.522 956.3 242.922 956.3C247.922 956.3 251.622 955.3 254.022 953.3C256.622 951.3 257.922 947.8 257.922 942.8C257.922 938.6 256.722 933.3 254.322 926.9C251.922 920.3 249.722 914.8 247.722 910.4C247.522 910.2 247.422 909.8 247.422 909.2C247.422 907.6 248.022 906.8 249.222 906.8C250.222 906.8 251.122 907.5 251.922 908.9C253.522 911.5 254.922 914 256.122 916.4C257.322 918.8 259.122 923.2 261.522 929.6C264.922 939.2 266.622 947.3 266.622 953.9C266.622 961.9 264.322 968.2 259.722 972.8C255.322 977.2 248.822 979.4 240.222 979.4ZM140.622 994.7C136.022 994.7 131.422 992.9 126.822 989.3C122.422 985.7 119.422 980.2 117.822 972.8C115.422 961.4 114.222 948.2 114.222 933.2C114.222 920.2 114.922 906.8 116.322 893C117.722 879 119.622 865.3 122.022 851.9C124.422 838.5 127.022 826.3 129.822 815.3C132.822 804.1 135.822 794.9 138.822 787.7C139.222 787.1 139.722 786.8 140.322 786.8C140.922 786.6 141.522 786.5 142.122 786.5H143.622C148.222 786.5 151.822 787.3 154.422 788.9C157.022 790.5 159.022 793.4 160.422 797.6C159.422 800.8 157.722 806.6 155.322 815C152.922 823.4 150.322 833.5 147.522 845.3C144.722 856.9 142.022 869.5 139.422 883.1C137.022 896.7 135.322 910.3 134.322 923.9C134.122 927.3 133.822 931.1 133.422 935.3C133.222 939.5 133.122 943.7 133.122 947.9C133.122 953.7 133.422 959.2 134.022 964.4C134.822 969.6 136.122 973.8 137.922 977C139.722 980.2 142.222 981.8 145.422 981.8C147.422 981.8 149.522 981.4 151.722 980.6C153.922 979.8 155.322 979 155.922 978.2H158.022C157.422 983.6 155.422 987.7 152.022 990.5C148.622 993.3 144.822 994.7 140.622 994.7ZM316.996 982.7C307.396 982.7 299.596 979.8 293.596 974C287.796 968 283.496 960.7 280.696 952.1C278.096 943.3 276.796 934.7 276.796 926.3C276.796 916.7 277.796 907.1 279.796 897.5C281.796 887.7 284.896 878.8 289.096 870.8C293.496 862.8 298.996 856.4 305.596 851.6C312.196 846.6 319.996 844.1 328.996 844.1C335.396 844.1 340.396 846 343.996 849.8C347.596 853.6 349.396 859.2 349.396 866.6C349.396 876.6 346.896 885.5 341.896 893.3C337.096 900.9 330.996 907.1 323.596 911.9C316.196 916.7 308.496 920 300.496 921.8V923.3C300.496 931.5 301.296 939.2 302.896 946.4C304.696 953.4 307.496 959.1 311.296 963.5C315.296 967.7 320.496 969.8 326.896 969.8C334.696 969.8 340.696 966.6 344.896 960.2C349.096 953.6 352.396 945.3 354.796 935.3C354.996 934.5 355.296 933.8 355.696 933.2C356.296 932.4 356.796 932 357.196 932C358.996 932 359.796 933.3 359.596 935.9C358.996 941.3 357.796 946.4 355.996 951.2C354.196 956 352.296 960.1 350.296 963.5C346.496 969.7 341.896 974.4 336.496 977.6C331.296 981 324.796 982.7 316.996 982.7ZM300.796 914.9C307.196 913.3 312.796 910.2 317.596 905.6C322.396 900.8 326.096 895.2 328.696 888.8C331.496 882.4 332.896 875.9 332.896 869.3V867.8C332.896 864.2 332.296 860.8 331.096 857.6C330.096 854.4 328.096 852.8 325.096 852.8C321.496 852.8 318.296 854.6 315.496 858.2C312.896 861.6 310.596 866 308.596 871.4C306.796 876.8 305.296 882.4 304.096 888.2C302.896 894 301.996 899.3 301.396 904.1C300.996 908.9 300.796 912.4 300.796 914.6V914.9ZM384.705 980.3C375.705 980.3 368.105 978.2 361.905 974C355.905 969.6 352.905 961.9 352.905 950.9C352.905 950.5 352.905 949.6 352.905 948.2C353.105 946.6 353.305 945 353.505 943.4C352.305 941.2 351.705 938.2 351.705 934.4C351.705 932 352.105 929.9 352.905 928.1C353.705 926.3 354.905 925.4 356.505 925.4H356.805C357.405 925.4 358.205 926.1 359.205 927.5C361.805 920.1 364.205 912.5 366.405 904.7C368.605 896.7 370.605 889.6 372.405 883.4C374.405 876.2 376.905 868.5 379.905 860.3C383.105 851.9 388.105 845.5 394.905 841.1C400.105 837.7 405.705 836 411.705 836C412.105 836 412.605 836.1 413.205 836.3C413.805 836.3 414.305 836.3 414.705 836.3C416.305 836.5 417.105 837.2 417.105 838.4C417.105 839.8 416.405 840.5 415.005 840.5C412.805 840.7 411.205 842.5 410.205 845.9C409.205 849.1 408.705 852.8 408.705 857C408.705 858 408.705 859.1 408.705 860.3C408.705 861.5 408.805 862.6 409.005 863.6C409.805 870.2 411.605 877.5 414.405 885.5C417.205 893.3 419.805 901.2 422.205 909.2C424.805 917 426.105 924.3 426.105 931.1V932.6C426.105 935.2 425.905 938 425.505 941C425.305 944 424.705 946.9 423.705 949.7C426.505 949.5 429.205 949.2 431.805 948.8C434.605 948.2 437.105 947.5 439.305 946.7C442.105 945.5 444.305 944.1 445.905 942.5C447.705 940.9 449.205 939.1 450.405 937.1C450.805 936.5 451.305 936.2 451.905 936.2C453.505 936.2 454.305 937.2 454.305 939.2C454.305 939.8 454.105 940.5 453.705 941.3C451.505 945.7 447.505 949.3 441.705 952.1C435.905 954.9 429.105 956.5 421.305 956.9C418.505 963.3 414.105 968.8 408.105 973.4C402.305 978 394.505 980.3 384.705 980.3ZM399.105 946.4C399.505 944.2 399.805 941.9 400.005 939.5C400.205 937.1 400.305 934.7 400.305 932.3C400.305 928.5 400.105 924.7 399.705 920.9C399.305 916.9 398.805 913 398.205 909.2C396.805 899.8 395.105 891.2 393.105 883.4C391.305 875.6 390.405 868.6 390.405 862.4C390.405 859.2 390.705 856.3 391.305 853.7C390.305 853.7 389.205 855.2 388.005 858.2C386.805 861.2 385.605 864.6 384.405 868.4C383.205 872.2 382.205 875.6 381.405 878.6C379.005 887.2 376.405 896.1 373.605 905.3C370.805 914.3 367.805 923.2 364.605 932C366.805 933.4 369.305 934.8 372.105 936.2C375.105 937.6 378.005 938.9 380.805 940.1C383.405 941.3 386.205 942.5 389.205 943.7C392.405 944.7 395.705 945.6 399.105 946.4ZM376.605 970.4H377.805C381.405 970 385.005 968.8 388.605 966.8C392.205 964.6 394.805 961.3 396.405 956.9C396.405 956.7 396.405 956.6 396.405 956.6C396.605 956.4 396.705 956.2 396.705 956C389.305 955.4 382.305 954.5 375.705 953.3C369.305 951.9 364.105 950.2 360.105 948.2C360.105 948.8 360.005 949.4 359.805 950C359.805 950.6 359.805 951.1 359.805 951.5C359.805 957.5 361.305 962.2 364.305 965.6C367.505 968.8 371.605 970.4 376.605 970.4ZM478.134 825.2C474.334 825.2 470.934 823.8 467.934 821C465.134 818.2 463.734 814.8 463.734 810.8C463.734 806.8 465.134 803.4 467.934 800.6C470.934 797.8 474.334 796.4 478.134 796.4C482.134 796.4 485.534 797.8 488.334 800.6C491.134 803.4 492.534 806.8 492.534 810.8C492.534 814.8 491.134 818.2 488.334 821C485.534 823.8 482.134 825.2 478.134 825.2ZM476.034 978.5C468.834 978.5 463.134 975.5 458.934 969.5C454.934 963.3 452.034 955.5 450.234 946.1C448.634 936.5 447.834 926.5 447.834 916.1C447.834 907.5 448.234 899.2 449.034 891.2C450.034 883 451.134 875.9 452.334 869.9C453.734 863.7 455.034 859.3 456.234 856.7C457.434 854.3 459.334 852.1 461.934 850.1C464.734 847.9 468.434 846.8 473.034 846.8C475.634 846.8 478.234 847.1 480.834 847.7C478.834 854.7 476.434 864.4 473.634 876.8C470.834 889.2 469.434 902.9 469.434 917.9C469.434 923.1 469.534 928.7 469.734 934.7C469.934 940.5 470.434 946 471.234 951.2C472.034 956.2 473.234 960.3 474.834 963.5C476.634 966.7 478.934 968.3 481.734 968.3H482.034C483.634 968.3 485.334 967.5 487.134 965.9C489.134 964.3 491.234 961.3 493.434 956.9C496.434 951.1 499.234 943.6 501.834 934.4C502.234 932.6 503.034 931.7 504.234 931.7C505.234 931.7 505.734 932.9 505.734 935.3V936.5C505.334 941.7 503.934 947.6 501.534 954.2C499.134 960.8 495.734 966.5 491.334 971.3C487.134 976.1 482.034 978.5 476.034 978.5ZM586.089 978.5C578.889 978.5 573.389 975.5 569.589 969.5C565.989 963.5 563.489 955.8 562.089 946.4C560.889 937 560.289 927.2 560.289 917C557.689 926.6 554.389 936.1 550.389 945.5C546.389 954.9 541.889 962.7 536.889 968.9C532.089 975.1 526.989 978.2 521.589 978.2C516.789 978.2 512.889 976 509.889 971.6C506.889 967 504.689 961 503.289 953.6C501.889 946.2 501.189 938.2 501.189 929.6C501.189 923.4 501.689 916.4 502.689 908.6C503.689 900.8 505.289 893 507.489 885.2C509.689 877.4 512.689 870.3 516.489 863.9C520.489 857.3 525.389 852 531.189 848C536.989 844 543.889 842 551.889 842C556.489 842 560.189 843 562.989 845C563.389 834.4 563.889 824.2 564.489 814.4C565.089 804.6 565.789 796.9 566.589 791.3C567.189 787.5 567.989 783.2 568.989 778.4C570.189 773.6 571.789 769 573.789 764.6C575.989 760 578.589 756.2 581.589 753.2C584.789 750.2 588.589 748.7 592.989 748.7C598.589 748.7 602.789 750.1 605.589 752.9C608.389 755.5 610.289 758.9 611.289 763.1C612.489 767.1 613.089 771.4 613.089 776C613.089 778.6 612.989 781.3 612.789 784.1C612.589 786.7 612.289 789.1 611.889 791.3C610.689 801.1 608.389 811.9 604.989 823.7C601.589 835.5 597.589 847 592.989 858.2C588.589 869.2 584.289 878.7 580.089 886.7C579.889 888.1 579.689 891.2 579.489 896C579.289 900.8 579.189 906.4 579.189 912.8C579.189 918.8 579.289 925.1 579.489 931.7C579.889 938.1 580.589 944.1 581.589 949.7C582.589 955.1 583.889 959.6 585.489 963.2C587.289 966.6 589.589 968.3 592.389 968.3C595.189 968.3 597.689 967 599.889 964.4C602.089 961.6 604.089 958.2 605.889 954.2C607.689 950.2 609.089 946.4 610.089 942.8C611.289 939 612.189 936.2 612.789 934.4C613.189 932.8 613.989 932 615.189 932C616.189 932 616.689 933.1 616.689 935.3V936.8C616.689 942.2 615.389 948.2 612.789 954.8C610.389 961.2 606.889 966.8 602.289 971.6C597.889 976.2 592.489 978.5 586.089 978.5ZM579.489 873.5C583.289 865.3 586.889 856.1 590.289 845.9C593.689 835.5 596.489 824.9 598.689 814.1C601.089 803.3 602.289 793.2 602.289 783.8C602.289 782.2 602.289 780.7 602.289 779.3C602.289 777.9 602.189 776.5 601.989 775.1C601.789 772.3 601.189 769.9 600.189 767.9C599.189 765.7 597.889 764.6 596.289 764.6C595.489 764.6 594.489 765.3 593.289 766.7C592.089 767.9 590.889 770.2 589.689 773.6C589.089 775.4 588.289 779.5 587.289 785.9C586.489 792.1 585.589 799.5 584.589 808.1C583.789 816.5 582.989 825.1 582.189 833.9C581.389 842.5 580.689 850.3 580.089 857.3C579.689 864.1 579.489 868.9 579.489 871.7V873.5ZM532.089 953.6C535.489 953.6 538.689 951.2 541.689 946.4C544.689 941.4 547.389 935.4 549.789 928.4C552.389 921.4 554.489 914.8 556.089 908.6C558.289 900.6 559.789 892.6 560.589 884.6C561.589 876.4 562.189 868.2 562.389 860L562.689 851.6C561.489 851 560.089 850.7 558.489 850.7C554.089 850.7 549.589 852.9 544.989 857.3C540.389 861.5 536.689 866.5 533.889 872.3C530.289 879.9 527.589 888.8 525.789 899C524.189 909.2 523.389 918.8 523.389 927.8C523.389 929.2 523.389 930.7 523.389 932.3C523.389 933.9 523.489 935.4 523.689 936.8C524.089 942.8 525.089 947.1 526.689 949.7C528.289 952.3 530.089 953.6 532.089 953.6ZM635.324 978.2C630.924 978.2 626.924 976.4 623.324 972.8C619.924 969.2 617.424 963.7 615.824 956.3C615.024 952.9 614.424 948.6 614.024 943.4C613.824 938.2 613.724 932.7 613.724 926.9C613.724 918.1 614.024 909 614.624 899.6C615.424 890.2 616.424 881.6 617.624 873.8C618.824 865.8 620.224 859.7 621.824 855.5C622.824 853.1 624.624 851 627.224 849.2C630.024 847.4 633.624 846.5 638.024 846.5C641.024 846.5 644.024 846.9 647.024 847.7C646.424 849.9 645.224 855.1 643.424 863.3C641.824 871.5 640.424 880.6 639.224 890.6C638.424 897.6 637.724 904.8 637.124 912.2C636.524 919.4 636.224 926.2 636.224 932.6C636.224 940.8 636.924 947.7 638.324 953.3C639.724 958.7 642.024 961.4 645.224 961.4C649.024 961.4 652.324 959.2 655.124 954.8C658.124 950.2 660.724 944.5 662.924 937.7C665.124 930.9 666.824 924.1 668.024 917.3C669.824 907.3 671.424 896.6 672.824 885.2C674.224 873.6 675.824 863.7 677.624 855.5C678.224 853.1 679.924 851 682.724 849.2C685.724 847.4 689.424 846.5 693.824 846.5C696.824 846.5 699.824 846.9 702.824 847.7C701.224 852.1 699.624 858.7 698.024 867.5C696.624 876.3 695.424 886 694.424 896.6C693.424 907.2 692.924 917.7 692.924 928.1C692.924 933.3 693.124 939 693.524 945.2C694.124 951.4 695.224 956.7 696.824 961.1C698.624 965.5 701.124 967.7 704.324 967.7H704.624C706.224 967.7 707.924 966.9 709.724 965.3C711.724 963.7 713.824 960.7 716.024 956.3C717.624 953.5 719.024 950.2 720.224 946.4C721.424 942.6 722.724 938.5 724.124 934.1C724.924 932.3 725.724 931.4 726.524 931.4C727.524 931.4 728.024 932.6 728.024 935V936.2C727.624 941.4 726.224 947.3 723.824 953.9C721.424 960.5 718.024 966.2 713.624 971C709.424 975.8 704.324 978.2 698.324 978.2C691.524 978.2 686.124 975.8 682.124 971C678.124 966 675.224 960 673.424 953C671.624 945.8 670.524 938.9 670.124 932.3C668.724 937.5 667.124 942.7 665.324 947.9C663.524 953.1 661.324 957.7 658.724 961.7C651.524 972.7 643.724 978.2 635.324 978.2ZM755.952 980C749.152 980 743.552 978.2 739.152 974.6C734.952 971 731.652 966.3 729.252 960.5C727.052 954.7 725.452 948.4 724.452 941.6C723.652 934.6 723.252 927.8 723.252 921.2C723.252 916.2 723.452 911.6 723.852 907.4C724.252 903 724.552 899.2 724.752 896C725.752 887.6 727.952 879.2 731.352 870.8C734.752 862.2 739.752 855.1 746.352 849.5C752.952 843.7 761.652 840.8 772.452 840.8C780.052 840.8 785.852 843.3 789.852 848.3C794.052 853.1 796.952 859.4 798.552 867.2C800.152 874.8 800.952 882.9 800.952 891.5C800.952 893.9 800.852 896.3 800.652 898.7C800.652 901.1 800.552 903.5 800.352 905.9C805.352 911.5 811.352 914.3 818.352 914.3C823.752 914.3 829.052 912.3 834.252 908.3C835.452 907.3 836.552 906.8 837.552 906.8C838.352 906.8 838.752 907.3 838.752 908.3C838.752 910.1 838.252 911.3 837.252 911.9C834.052 914.9 830.652 917.1 827.052 918.5C823.452 919.9 819.852 920.6 816.252 920.6C810.052 920.6 804.352 918.8 799.152 915.2C798.752 919 798.152 922.6 797.352 926C796.752 929.2 796.152 932 795.552 934.4C793.752 940.6 791.052 947.3 787.452 954.5C784.052 961.5 779.652 967.5 774.252 972.5C769.052 977.5 762.952 980 755.952 980ZM765.852 963.5C770.052 963.5 773.552 961.5 776.352 957.5C779.352 953.5 781.852 948.9 783.852 943.7C785.852 938.5 787.252 934.1 788.052 930.5C788.652 927.7 789.152 924.5 789.552 920.9C789.952 917.3 790.252 913 790.452 908C787.652 905.6 785.252 901.3 783.252 895.1C781.452 888.7 780.552 882.6 780.552 876.8C780.552 872.8 781.052 869.3 782.052 866.3C783.052 863.1 784.552 861 786.552 860C785.352 857 783.752 854.2 781.752 851.6C779.752 848.8 776.952 847.4 773.352 847.4C769.952 847.4 766.852 849.4 764.052 853.4C761.452 857.4 759.152 862.2 757.152 867.8C755.152 873.4 753.552 878.7 752.352 883.7C751.352 888.7 750.752 892.2 750.552 894.2C750.352 896.4 750.052 899.8 749.652 904.4C749.252 908.8 749.052 913.7 749.052 919.1C749.052 925.9 749.452 932.7 750.252 939.5C751.252 946.3 752.952 952 755.352 956.6C757.752 961.2 761.252 963.5 765.852 963.5ZM961.584 988.4C948.784 988.4 936.884 985.9 925.884 980.9C914.884 975.9 905.784 968.1 898.584 957.5C891.384 946.7 886.884 932.8 885.084 915.8C884.884 913.6 884.684 911.4 884.484 909.2C884.484 907 884.484 904.9 884.484 902.9C884.484 889.5 886.484 876.2 890.484 863C894.684 849.6 900.484 837 907.884 825.2C915.284 813.4 924.084 802.9 934.284 793.7C944.484 784.5 955.684 777.3 967.884 772.1C980.284 766.7 993.384 764 1007.18 764H1011.68C1018.88 764.2 1025.58 765.5 1031.78 767.9C1038.18 770.3 1043.28 774.1 1047.08 779.3C1051.08 784.3 1053.08 791.2 1053.08 800C1053.08 809.8 1050.18 819.4 1044.38 828.8C1038.58 838 1030.88 846.4 1021.28 854C1011.68 861.6 1001.08 867.7 989.484 872.3C977.884 876.7 966.184 878.9 954.384 878.9C953.584 878.9 952.784 878.9 951.984 878.9C951.184 878.7 950.284 878.6 949.284 878.6C946.684 878.4 944.784 877.4 943.584 875.6C942.584 873.8 942.084 872.3 942.084 871.1C954.684 871.1 967.084 869.1 979.284 865.1C991.684 861.1 1002.78 855 1012.58 846.8C1022.58 838.4 1030.28 827.7 1035.68 814.7C1038.48 807.9 1039.88 801.7 1039.88 796.1C1039.88 790.3 1038.08 785.5 1034.48 781.7C1031.08 777.7 1025.18 775.5 1016.78 775.1H1014.68C1006.68 775.1 997.984 777.4 988.584 782C979.184 786.4 969.884 792.7 960.684 800.9C951.484 809.1 943.084 818.8 935.484 830C928.084 841.2 922.084 853.7 917.484 867.5C912.884 881.1 910.584 895.6 910.584 911V913.7C910.584 929.5 912.984 942.1 917.784 951.5C922.784 960.7 929.384 967.3 937.584 971.3C945.984 975.3 955.084 977.3 964.884 977.3C966.484 977.3 967.984 977.3 969.384 977.3C970.984 977.3 972.484 977.2 973.884 977C983.884 976 993.884 973 1003.88 968C1013.88 962.8 1023.18 956.4 1031.78 948.8C1040.38 941.2 1047.48 932.9 1053.08 923.9C1058.88 914.9 1062.38 906.1 1063.58 897.5C1063.78 896.5 1064.28 896 1065.08 896C1065.88 896 1066.68 896.3 1067.48 896.9C1068.28 897.5 1068.68 898.2 1068.68 899V899.3C1068.68 908.3 1066.78 916.6 1062.98 924.2C1059.38 931.8 1055.18 938.8 1050.38 945.2C1041.38 957.2 1029.78 966.9 1015.58 974.3C1001.58 981.7 987.184 986.2 972.384 987.8C970.584 988 968.784 988.1 966.984 988.1C965.184 988.3 963.384 988.4 961.584 988.4ZM1131.22 978.5C1124.62 978.5 1119.42 976.4 1115.62 972.2C1111.82 967.8 1109.12 962.2 1107.52 955.4C1106.12 948.4 1105.42 940.9 1105.42 932.9C1105.42 924.3 1105.92 915.9 1106.92 907.7C1108.12 899.3 1109.32 891.9 1110.52 885.5C1111.92 879.1 1112.92 874.7 1113.52 872.3C1107.92 871.9 1103.52 871 1100.32 869.6C1097.12 868.2 1094.42 866.5 1092.22 864.5C1091.42 874.1 1090.12 884.4 1088.32 895.4C1086.72 906.4 1084.82 917 1082.62 927.2C1080.42 937.2 1078.02 945.8 1075.42 953C1074.62 955.6 1073.32 956.9 1071.52 956.9C1070.12 956.9 1069.42 956 1069.42 954.2C1069.42 953.8 1069.42 953.3 1069.42 952.7C1069.62 952.1 1069.82 951.5 1070.02 950.9C1073.22 941.7 1075.92 931.7 1078.12 920.9C1080.32 909.9 1082.02 899.3 1083.22 889.1C1084.42 878.9 1085.02 870.4 1085.02 863.6V860.3C1080.02 858.1 1076.32 854.9 1073.92 850.7C1071.72 846.5 1070.62 842.5 1070.62 838.7C1070.62 835.9 1071.12 833.4 1072.12 831.2C1073.32 829 1075.02 827.9 1077.22 827.9H1077.82C1080.62 827.9 1083.12 829.9 1085.32 833.9C1087.52 837.7 1089.32 842 1090.72 846.8C1092.12 851.4 1092.82 855.1 1092.82 857.9C1095.22 859.7 1097.82 861 1100.62 861.8C1103.62 862.6 1106.12 863 1108.12 863C1110.72 863 1112.42 862.6 1113.22 861.8C1114.82 860.2 1116.72 857.9 1118.92 854.9C1121.32 851.9 1125.02 850.4 1130.02 850.4C1133.42 850.4 1137.52 851.4 1142.32 853.4C1139.92 858.4 1137.72 864.1 1135.72 870.5C1133.72 876.7 1132.02 883.3 1130.62 890.3C1130.42 891.9 1129.92 895.1 1129.12 899.9C1128.32 904.7 1127.62 910.2 1127.02 916.4C1126.42 922.6 1126.12 928.8 1126.12 935C1126.12 943.8 1127.02 951.6 1128.82 958.4C1130.82 965 1134.42 968.3 1139.62 968.3C1142.82 968.3 1145.62 967 1148.02 964.4C1150.42 961.8 1152.52 958.6 1154.32 954.8C1156.12 950.8 1157.62 947 1158.82 943.4C1160.02 939.6 1160.92 936.6 1161.52 934.4C1161.92 932.6 1162.72 931.7 1163.92 931.7C1164.92 931.7 1165.42 932.8 1165.42 935V936.5C1165.42 945.7 1163.72 953.5 1160.32 959.9C1157.12 966.1 1152.92 970.8 1147.72 974C1142.52 977 1137.02 978.5 1131.22 978.5ZM1202.05 982.7C1192.45 982.7 1184.65 979.8 1178.65 974C1172.85 968 1168.55 960.7 1165.75 952.1C1163.15 943.3 1161.85 934.7 1161.85 926.3C1161.85 916.7 1162.85 907.1 1164.85 897.5C1166.85 887.7 1169.95 878.8 1174.15 870.8C1178.55 862.8 1184.05 856.4 1190.65 851.6C1197.25 846.6 1205.05 844.1 1214.05 844.1C1220.45 844.1 1225.45 846 1229.05 849.8C1232.65 853.6 1234.45 859.2 1234.45 866.6C1234.45 876.6 1231.95 885.5 1226.95 893.3C1222.15 900.9 1216.05 907.1 1208.65 911.9C1201.25 916.7 1193.55 920 1185.55 921.8V923.3C1185.55 931.5 1186.35 939.2 1187.95 946.4C1189.75 953.4 1192.55 959.1 1196.35 963.5C1200.35 967.7 1205.55 969.8 1211.95 969.8C1219.75 969.8 1225.75 966.6 1229.95 960.2C1234.15 953.6 1237.45 945.3 1239.85 935.3C1240.05 934.5 1240.35 933.8 1240.75 933.2C1241.35 932.4 1241.85 932 1242.25 932C1244.05 932 1244.85 933.3 1244.65 935.9C1244.05 941.3 1242.85 946.4 1241.05 951.2C1239.25 956 1237.35 960.1 1235.35 963.5C1231.55 969.7 1226.95 974.4 1221.55 977.6C1216.35 981 1209.85 982.7 1202.05 982.7ZM1185.85 914.9C1192.25 913.3 1197.85 910.2 1202.65 905.6C1207.45 900.8 1211.15 895.2 1213.75 888.8C1216.55 882.4 1217.95 875.9 1217.95 869.3V867.8C1217.95 864.2 1217.35 860.8 1216.15 857.6C1215.15 854.4 1213.15 852.8 1210.15 852.8C1206.55 852.8 1203.35 854.6 1200.55 858.2C1197.95 861.6 1195.65 866 1193.65 871.4C1191.85 876.8 1190.35 882.4 1189.15 888.2C1187.95 894 1187.05 899.3 1186.45 904.1C1186.05 908.9 1185.85 912.4 1185.85 914.6V914.9ZM1325.56 978.5C1319.36 978.5 1314.36 976.6 1310.56 972.8C1306.76 968.8 1303.76 963.8 1301.56 957.8C1299.56 951.6 1298.16 945.4 1297.36 939.2C1296.56 932.8 1296.16 927.2 1296.16 922.4C1293.76 931.4 1290.66 940.2 1286.86 948.8C1283.26 957.4 1279.26 964.5 1274.86 970.1C1270.46 975.5 1265.66 978.2 1260.46 978.2H1260.16C1255.36 978.2 1251.36 976 1248.16 971.6C1244.96 967 1242.56 961 1240.96 953.6C1239.36 946.2 1238.56 938.2 1238.56 929.6V926.6C1238.56 918.6 1239.26 909.8 1240.66 900.2C1242.06 890.4 1244.56 881.1 1248.16 872.3C1251.76 863.5 1256.66 856.3 1262.86 850.7C1269.26 844.9 1277.36 842 1287.16 842C1290.96 842 1294.36 842.9 1297.36 844.7C1300.56 846.3 1302.86 848.7 1304.26 851.9C1305.66 850.3 1307.56 849 1309.96 848C1312.36 847 1315.26 846.5 1318.66 846.5C1319.86 846.5 1321.16 846.6 1322.56 846.8C1324.16 847 1325.76 847.3 1327.36 847.7C1326.16 852.3 1324.76 858.6 1323.16 866.6C1321.56 874.6 1320.16 883.4 1318.96 893C1317.96 902.4 1317.46 911.6 1317.46 920.6V921.8C1317.46 925.6 1317.66 930.1 1318.06 935.3C1318.46 940.5 1319.16 945.6 1320.16 950.6C1321.16 955.6 1322.56 959.8 1324.36 963.2C1326.16 966.6 1328.46 968.3 1331.26 968.3H1331.56C1333.16 968.3 1334.86 967.5 1336.66 965.9C1338.66 964.3 1340.76 961.3 1342.96 956.9C1345.96 951.1 1348.76 943.6 1351.36 934.4C1351.76 932.6 1352.56 931.7 1353.76 931.7C1354.76 931.7 1355.26 932.9 1355.26 935.3V936.5C1354.86 941.7 1353.46 947.6 1351.06 954.2C1348.66 960.8 1345.26 966.5 1340.86 971.3C1336.66 976.1 1331.56 978.5 1325.56 978.5ZM1270.66 953.6C1273.86 953.6 1276.76 951.3 1279.36 946.7C1282.16 942.1 1284.66 936.5 1286.86 929.9C1289.06 923.3 1290.96 916.9 1292.56 910.7C1294.96 901.5 1296.56 892.2 1297.36 882.8C1298.16 873.2 1299.86 863.8 1302.46 854.6C1300.06 852 1297.36 850.7 1294.36 850.7C1289.96 850.7 1285.46 852.9 1280.86 857.3C1276.26 861.7 1272.66 866.7 1270.06 872.3C1266.86 879.3 1264.46 887.5 1262.86 896.9C1261.46 906.3 1260.76 915.3 1260.76 923.9C1260.76 926.1 1260.76 928.3 1260.76 930.5C1260.96 932.7 1261.16 934.8 1261.36 936.8C1261.76 942.8 1262.86 947.1 1264.66 949.7C1266.66 952.3 1268.66 953.6 1270.66 953.6ZM1387.7 980C1376.7 980 1368.6 976.8 1363.4 970.4C1358.4 963.8 1355.2 954.9 1353.8 943.7C1352.4 932.5 1351.7 919.9 1351.7 905.9C1351.7 900.1 1351.8 893.9 1352 887.3C1352.2 880.7 1352.5 874.5 1352.9 868.7C1353.5 862.9 1354 858.5 1354.4 855.5H1345.1C1343.5 855.5 1342.7 854.5 1342.7 852.5C1342.7 851.5 1343.1 850.5 1343.9 849.5C1344.5 848.3 1345.3 847.7 1346.3 847.7H1355C1355.8 838.3 1356.7 829.8 1357.7 822.2C1358.7 814.6 1359.9 809.2 1361.3 806C1362.3 803.8 1363.9 801.9 1366.1 800.3C1368.5 798.5 1371.7 797.6 1375.7 797.6C1376.9 797.6 1378.2 797.7 1379.6 797.9C1381.2 798.1 1382.7 798.4 1384.1 798.8C1383.1 802.2 1381.9 808.4 1380.5 817.4C1379.3 826.2 1378.2 836.3 1377.2 847.7H1401.2C1403 847.7 1403.9 848.8 1403.9 851C1403.9 852 1403.6 853 1403 854C1402.4 855 1401.5 855.5 1400.3 855.5H1376.3C1375.7 862.3 1375.1 869.4 1374.5 876.8C1373.9 884.2 1373.5 891.4 1373.3 898.4C1373.3 900.4 1373.2 902.6 1373 905C1373 907.2 1373 909.6 1373 912.2C1373 918 1373.2 924.2 1373.6 930.8C1374 937.4 1374.9 943.6 1376.3 949.4C1377.7 955.2 1379.7 959.9 1382.3 963.5C1384.9 967.1 1388.3 968.9 1392.5 968.9C1394.5 968.9 1396.5 968.5 1398.5 967.7C1400.5 966.7 1402.2 965.5 1403.6 964.1C1407.6 960.3 1410.6 955.2 1412.6 948.8C1414.8 942.4 1416.7 935.9 1418.3 929.3C1418.9 926.5 1419.9 925.1 1421.3 925.1C1422.3 925.1 1422.8 926.3 1422.8 928.7C1422.8 929.3 1422.7 930 1422.5 930.8C1422.5 931.6 1422.4 932.5 1422.2 933.5C1421 940.3 1419.1 947.3 1416.5 954.5C1414.1 961.7 1410.6 967.8 1406 972.8C1401.6 977.6 1395.5 980 1387.7 980ZM1445.52 825.2C1441.72 825.2 1438.32 823.8 1435.32 821C1432.52 818.2 1431.12 814.8 1431.12 810.8C1431.12 806.8 1432.52 803.4 1435.32 800.6C1438.32 797.8 1441.72 796.4 1445.52 796.4C1449.52 796.4 1452.92 797.8 1455.72 800.6C1458.52 803.4 1459.92 806.8 1459.92 810.8C1459.92 814.8 1458.52 818.2 1455.72 821C1452.92 823.8 1449.52 825.2 1445.52 825.2ZM1443.42 978.5C1436.22 978.5 1430.52 975.5 1426.32 969.5C1422.32 963.3 1419.42 955.5 1417.62 946.1C1416.02 936.5 1415.22 926.5 1415.22 916.1C1415.22 907.5 1415.62 899.2 1416.42 891.2C1417.42 883 1418.52 875.9 1419.72 869.9C1421.12 863.7 1422.42 859.3 1423.62 856.7C1424.82 854.3 1426.72 852.1 1429.32 850.1C1432.12 847.9 1435.82 846.8 1440.42 846.8C1443.02 846.8 1445.62 847.1 1448.22 847.7C1446.22 854.7 1443.82 864.4 1441.02 876.8C1438.22 889.2 1436.82 902.9 1436.82 917.9C1436.82 923.1 1436.92 928.7 1437.12 934.7C1437.32 940.5 1437.82 946 1438.62 951.2C1439.42 956.2 1440.62 960.3 1442.22 963.5C1444.02 966.7 1446.32 968.3 1449.12 968.3H1449.42C1451.02 968.3 1452.72 967.5 1454.52 965.9C1456.52 964.3 1458.62 961.3 1460.82 956.9C1463.82 951.1 1466.62 943.6 1469.22 934.4C1469.62 932.6 1470.42 931.7 1471.62 931.7C1472.62 931.7 1473.12 932.9 1473.12 935.3V936.5C1472.72 941.7 1471.32 947.6 1468.92 954.2C1466.52 960.8 1463.12 966.5 1458.72 971.3C1454.52 976.1 1449.42 978.5 1443.42 978.5ZM1505.47 977.6C1501.07 977.6 1497.47 975.3 1494.67 970.7C1492.07 965.9 1490.07 959.7 1488.67 952.1C1487.27 944.3 1486.17 935.8 1485.37 926.6C1484.57 917.4 1483.97 908.4 1483.57 899.6C1482.37 905.4 1480.97 911.7 1479.37 918.5C1477.77 925.1 1475.87 932.1 1473.67 939.5C1473.07 941.7 1472.47 943.9 1471.87 946.1C1471.27 948.1 1470.57 950.1 1469.77 952.1C1468.97 954.7 1467.77 956 1466.17 956C1464.77 956 1464.07 954.8 1464.07 952.4C1464.07 950.8 1464.47 948.9 1465.27 946.7L1468.57 936.5C1471.77 926.5 1474.17 917 1475.77 908C1477.37 898.8 1478.57 890.2 1479.37 882.2C1479.57 880.4 1479.67 878.6 1479.67 876.8C1479.87 874.8 1479.97 872.9 1479.97 871.1C1479.97 868.1 1479.87 865.3 1479.67 862.7C1479.47 860.1 1479.27 858 1479.07 856.4C1482.27 852.8 1486.37 851 1491.37 851H1491.67C1496.87 851 1500.17 854.2 1501.57 860.6C1503.17 867 1503.97 874.9 1503.97 884.3V892.1C1503.97 894.7 1504.07 898.6 1504.27 903.8C1504.47 909 1504.87 914.7 1505.47 920.9C1506.07 927.1 1506.87 933 1507.87 938.6C1508.87 944.2 1510.17 948.9 1511.77 952.7C1513.37 956.3 1515.27 958.1 1517.47 958.1C1520.87 958.1 1524.37 955 1527.97 948.8C1531.57 942.4 1534.37 935.2 1536.37 927.2C1536.77 925 1537.27 922.6 1537.87 920C1538.47 917.4 1538.97 914.6 1539.37 911.6C1538.37 907.6 1537.57 903.3 1536.97 898.7C1536.37 894.1 1535.97 889.8 1535.77 885.8C1535.57 881.6 1535.47 878.5 1535.47 876.5C1535.47 873.5 1535.57 869.6 1535.77 864.8C1535.97 860 1536.47 855.2 1537.27 850.4C1538.27 845.6 1539.67 841.6 1541.47 838.4C1543.27 835 1545.77 833.3 1548.97 833.3C1551.77 833.3 1554.17 835.3 1556.17 839.3C1557.57 842.3 1558.27 847.1 1558.27 853.7C1558.27 861.7 1557.27 871.1 1555.27 881.9C1553.27 892.5 1550.57 903.4 1547.17 914.6C1548.97 916.8 1551.17 918.5 1553.77 919.7C1556.37 920.7 1558.97 921.2 1561.57 921.2C1568.17 921.2 1574.17 919.2 1579.57 915.2C1580.97 914.4 1582.17 914 1583.17 914C1583.77 914 1584.07 914.5 1584.07 915.5C1584.07 917.1 1583.47 918.3 1582.27 919.1C1575.67 924.7 1568.27 927.5 1560.07 927.5C1554.07 927.5 1548.97 925.7 1544.77 922.1C1541.37 931.9 1537.57 941.1 1533.37 949.7C1529.17 958.1 1524.67 964.9 1519.87 970.1C1515.27 975.1 1510.47 977.6 1505.47 977.6ZM1604.98 980C1598.18 980 1592.58 978.2 1588.18 974.6C1583.98 971 1580.68 966.3 1578.28 960.5C1576.08 954.7 1574.48 948.4 1573.48 941.6C1572.68 934.6 1572.28 927.8 1572.28 921.2C1572.28 916.2 1572.48 911.6 1572.88 907.4C1573.28 903 1573.58 899.2 1573.78 896C1574.78 887.6 1576.98 879.2 1580.38 870.8C1583.78 862.2 1588.78 855.1 1595.38 849.5C1601.98 843.7 1610.68 840.8 1621.48 840.8C1629.08 840.8 1634.88 843.3 1638.88 848.3C1643.08 853.1 1645.98 859.4 1647.58 867.2C1649.18 874.8 1649.98 882.9 1649.98 891.5C1649.98 893.9 1649.88 896.3 1649.68 898.7C1649.68 901.1 1649.58 903.5 1649.38 905.9C1654.38 911.5 1660.38 914.3 1667.38 914.3C1672.78 914.3 1678.08 912.3 1683.28 908.3C1684.48 907.3 1685.58 906.8 1686.58 906.8C1687.38 906.8 1687.78 907.3 1687.78 908.3C1687.78 910.1 1687.28 911.3 1686.28 911.9C1683.08 914.9 1679.68 917.1 1676.08 918.5C1672.48 919.9 1668.88 920.6 1665.28 920.6C1659.08 920.6 1653.38 918.8 1648.18 915.2C1647.78 919 1647.18 922.6 1646.38 926C1645.78 929.2 1645.18 932 1644.58 934.4C1642.78 940.6 1640.08 947.3 1636.48 954.5C1633.08 961.5 1628.68 967.5 1623.28 972.5C1618.08 977.5 1611.98 980 1604.98 980ZM1614.88 963.5C1619.08 963.5 1622.58 961.5 1625.38 957.5C1628.38 953.5 1630.88 948.9 1632.88 943.7C1634.88 938.5 1636.28 934.1 1637.08 930.5C1637.68 927.7 1638.18 924.5 1638.58 920.9C1638.98 917.3 1639.28 913 1639.48 908C1636.68 905.6 1634.28 901.3 1632.28 895.1C1630.48 888.7 1629.58 882.6 1629.58 876.8C1629.58 872.8 1630.08 869.3 1631.08 866.3C1632.08 863.1 1633.58 861 1635.58 860C1634.38 857 1632.78 854.2 1630.78 851.6C1628.78 848.8 1625.98 847.4 1622.38 847.4C1618.98 847.4 1615.88 849.4 1613.08 853.4C1610.48 857.4 1608.18 862.2 1606.18 867.8C1604.18 873.4 1602.58 878.7 1601.38 883.7C1600.38 888.7 1599.78 892.2 1599.58 894.2C1599.38 896.4 1599.08 899.8 1598.68 904.4C1598.28 908.8 1598.08 913.7 1598.08 919.1C1598.08 925.9 1598.48 932.7 1599.28 939.5C1600.28 946.3 1601.98 952 1604.38 956.6C1606.78 961.2 1610.28 963.5 1614.88 963.5Z" fill="#4B9600"/>
<g clip-path="url(#clip0_386_430)">
<path d="M962.898 68.0313C962.898 68.0313 968.205 144.647 1002.56 179.511C1044.69 137.767 1021.19 76.4209 992.614 37.669C977.797 17.5695 956.734 -0.0175781 956.734 -0.0175781C956.734 -0.0175781 866.483 161.87 984.252 193.343C984.252 193.343 946.066 145.269 962.898 68.0313Z" fill="#4B9600"/>
<path d="M564.008 431.332C552.428 562.138 651.952 677.32 786.307 688.621C920.654 699.896 1038.97 602.994 1050.55 472.179C1054.03 432.726 1047.41 394.702 1032.8 360.513C1054.53 401.156 1065.04 448.075 1060.71 497.099C1048.53 634.502 924.255 736.287 783.134 724.435C641.995 712.592 537.465 591.586 549.638 454.183C553.969 405.169 572.597 360.682 601.146 324.273C580.73 355.515 567.509 391.878 564.008 431.332Z" fill="#EC8732"/>
<path d="M1113.42 519.302C1136.22 365.821 1026.93 223.385 869.282 201.172C843.505 197.541 775.794 191.637 724.733 231.472C801.371 200.675 897.585 225.986 915.785 231.597C896.719 302.185 790.675 306.561 729.666 303.161C656.137 299.069 624.078 324.273 624.078 324.273C624.078 324.273 638.548 215.474 744.519 170.863C837.843 131.561 900.156 191.211 900.156 191.211C1065.75 214.551 1180.56 364.161 1156.59 525.392C1132.63 686.623 978.964 798.413 813.37 775.074C754.303 766.764 701.691 742.35 659.547 707.087C695.993 732.664 739.121 750.313 786.672 757.016C944.315 779.22 1090.6 672.809 1113.42 519.302Z" fill="#4B9600"/>
<mask id="mask0_386_430" style="mask-type:luminance" maskUnits="userSpaceOnUse" x="622" y="332" width="360" height="246">
<path d="M622.884 332.504H981.262V577.276H622.884V332.504Z" fill="white"/>
</mask>
<g mask="url(#mask0_386_430)">
<path d="M977.305 390.085L760.731 394.675L970.247 399.123L921.237 511.596L761.187 509.128C759.892 507.663 758.26 506.465 756.345 505.666L695.509 341.292C693.804 336.729 689.345 333.409 684.057 333.32H683.647L636.67 332.592C636.543 332.592 636.36 332.592 636.242 332.592C628.819 332.707 622.911 338.655 623.029 345.873C623.139 353.091 629.248 358.853 636.67 358.737L675.094 358.142L738.346 513.407C738.282 513.567 738.219 513.718 738.164 513.887L722.955 562.724L722.599 563.86C722.271 564.917 722.134 566.044 722.198 567.207C722.508 572.605 727.249 576.733 732.793 576.432L918.575 566.231L748.321 556.882L761.269 527.63L925.769 525.091H925.988C928.65 525.046 931.14 523.466 932.152 520.9L981.672 396.406L981.754 396.22C981.955 395.696 982.064 395.11 982.055 394.506C982 392.011 979.876 390.032 977.305 390.085Z" fill="#4B9600"/>
</g>
<mask id="mask1_386_430" style="mask-type:luminance" maskUnits="userSpaceOnUse" x="733" y="577" width="59" height="57">
<path d="M733.076 577.275H791.432V633.783H733.076V577.275Z" fill="white"/>
</mask>
<g mask="url(#mask1_386_430)">
<path d="M762.263 578.189C746.534 578.189 733.787 590.601 733.787 605.906C733.787 621.212 746.534 633.623 762.263 633.623C777.983 633.623 790.73 621.212 790.73 605.906C790.73 590.601 777.983 578.189 762.263 578.189Z" fill="#4B9600"/>
</g>
<mask id="mask2_386_430" style="mask-type:luminance" maskUnits="userSpaceOnUse" x="847" y="577" width="59" height="57">
<path d="M847.453 577.275H905.809V633.783H847.453V577.275Z" fill="white"/>
</mask>
<g mask="url(#mask2_386_430)">
<path d="M876.686 578.189C860.957 578.189 848.219 590.601 848.219 605.906C848.219 621.212 860.957 633.623 876.686 633.623C892.406 633.623 905.153 621.212 905.153 605.906C905.153 590.601 892.406 578.189 876.686 578.189Z" fill="#4B9600"/>
</g>
</g>
<defs>
<clipPath id="clip0_386_430">
<rect width="646" height="801.139" fill="white" transform="translate(537)"/>
</clipPath>
</defs>
</svg>
