<svg xmlns="http://www.w3.org/2000/svg" xmlns:xlink="http://www.w3.org/1999/xlink" width="369" zoomAndPan="magnify" viewBox="0 0 276.75 352.49999" height="470" preserveAspectRatio="xMidYMid meet" version="1.0"><defs><clipPath id="fd9b3a024e"><path d="M 36.792969 146.300781 L 190.324219 146.300781 L 190.324219 254 L 36.792969 254 Z M 36.792969 146.300781 " clip-rule="nonzero"/></clipPath><clipPath id="992c9069fd"><path d="M 84 254 L 109 254 L 109 278.863281 L 84 278.863281 Z M 84 254 " clip-rule="nonzero"/></clipPath><clipPath id="1a614fa32a"><path d="M 133 254 L 158 254 L 158 278.863281 L 133 278.863281 Z M 133 254 " clip-rule="nonzero"/></clipPath></defs><path fill="#4b9600" d="M 182.457031 29.933594 C 182.457031 29.933594 184.730469 63.644531 199.449219 78.984375 C 217.496094 60.617188 207.429688 33.625 195.1875 16.574219 C 188.839844 7.730469 179.816406 -0.0078125 179.816406 -0.0078125 C 179.816406 -0.0078125 141.152344 71.222656 191.605469 85.070312 C 191.605469 85.070312 175.246094 63.917969 182.457031 29.933594 " fill-opacity="1" fill-rule="nonzero"/><path fill="#ec8732" d="M 11.570312 189.785156 C 6.609375 247.339844 49.246094 298.019531 106.804688 302.992188 C 164.359375 307.953125 215.046875 265.316406 220.007812 207.757812 C 221.5 190.398438 218.664062 173.667969 212.402344 158.625 C 221.710938 176.507812 226.214844 197.152344 224.359375 218.722656 C 219.140625 279.179688 165.902344 323.964844 105.445312 318.75 C 44.980469 313.539062 0.199219 260.296875 5.414062 199.839844 C 7.269531 178.273438 15.25 158.699219 27.480469 142.679688 C 18.734375 156.425781 13.070312 172.425781 11.570312 189.785156 " fill-opacity="1" fill-rule="nonzero"/><path fill="#4b9600" d="M 246.941406 228.492188 C 256.710938 160.960938 209.890625 98.289062 142.351562 88.515625 C 131.308594 86.917969 102.300781 84.320312 80.425781 101.847656 C 113.257812 88.296875 154.476562 99.433594 162.273438 101.902344 C 154.105469 132.960938 108.675781 134.886719 82.539062 133.390625 C 51.039062 131.589844 37.304688 142.679688 37.304688 142.679688 C 37.304688 142.679688 43.503906 94.808594 88.902344 75.179688 C 128.882812 57.886719 155.578125 84.132812 155.578125 84.132812 C 226.519531 94.402344 275.703125 160.230469 265.4375 231.171875 C 255.171875 302.113281 189.339844 351.300781 118.398438 341.03125 C 93.09375 337.375 70.554688 326.632812 52.5 311.117188 C 68.113281 322.371094 86.589844 330.136719 106.960938 333.085938 C 174.496094 342.855469 237.164062 296.035156 246.941406 228.492188 " fill-opacity="1" fill-rule="nonzero"/><g clip-path="url(#fd9b3a024e)"><path fill="#4b9600" d="M 188.628906 171.636719 L 95.847656 173.65625 L 185.605469 175.613281 L 164.609375 225.101562 L 96.042969 224.015625 C 95.488281 223.371094 94.789062 222.84375 93.96875 222.492188 L 67.90625 150.167969 C 67.175781 148.160156 65.265625 146.699219 63 146.660156 L 62.824219 146.660156 L 42.699219 146.339844 C 42.644531 146.339844 42.566406 146.339844 42.515625 146.339844 C 39.335938 146.390625 36.804688 149.007812 36.855469 152.183594 C 36.902344 155.359375 39.519531 157.894531 42.699219 157.84375 L 59.160156 157.582031 L 86.257812 225.898438 C 86.230469 225.96875 86.203125 226.035156 86.179688 226.109375 L 79.664062 247.597656 L 79.511719 248.097656 C 79.371094 248.5625 79.3125 249.058594 79.339844 249.570312 C 79.472656 251.945312 81.503906 253.761719 83.878906 253.628906 L 163.46875 249.140625 L 90.53125 245.027344 L 96.078125 232.15625 L 166.550781 231.039062 L 166.644531 231.039062 C 167.785156 231.019531 168.851562 230.324219 169.285156 229.195312 L 190.5 174.417969 L 190.535156 174.335938 C 190.621094 174.105469 190.667969 173.847656 190.664062 173.582031 C 190.640625 172.484375 189.730469 171.613281 188.628906 171.636719 " fill-opacity="1" fill-rule="nonzero"/></g><g clip-path="url(#992c9069fd)"><path fill="#4b9600" d="M 96.503906 254.402344 C 89.765625 254.402344 84.304688 259.863281 84.304688 266.597656 C 84.304688 273.332031 89.765625 278.792969 96.503906 278.792969 C 103.238281 278.792969 108.699219 273.332031 108.699219 266.597656 C 108.699219 259.863281 103.238281 254.402344 96.503906 254.402344 " fill-opacity="1" fill-rule="nonzero"/></g><g clip-path="url(#1a614fa32a)"><path fill="#4b9600" d="M 145.523438 254.402344 C 138.785156 254.402344 133.328125 259.863281 133.328125 266.597656 C 133.328125 273.332031 138.785156 278.792969 145.523438 278.792969 C 152.257812 278.792969 157.71875 273.332031 157.71875 266.597656 C 157.71875 259.863281 152.257812 254.402344 145.523438 254.402344 " fill-opacity="1" fill-rule="nonzero"/></g></svg>