<svg width="167" height="133" viewBox="0 0 167 133" fill="none" xmlns="http://www.w3.org/2000/svg">
<path d="M163.385 65.2254H137.492C139.753 59.0728 140.897 52.619 140.897 45.9991C140.897 14.5697 114.7 -11 82.4997 -11C69.745 -11 57.6278 -7.05839 47.4574 0.39854C46.3027 1.24506 46.0702 2.84481 46.9372 3.9718C47.8044 5.09848 49.4435 5.32579 50.5981 4.47959C52.8249 2.84672 55.1557 1.40105 57.571 0.143851V5.16374C57.571 6.38019 58.4507 7.4276 59.6729 7.66636L72.1307 10.098L74.44 16.8599C74.7002 17.6221 75.3131 18.22 76.094 18.4743L82.6735 20.615V28.892L77.5347 36.4161C77.2483 36.8354 77.0953 37.3282 77.0953 37.8319V45.9987C77.0953 47.2152 77.975 48.2626 79.1972 48.5014L91.0408 50.8133V56.8882C91.0408 57.5651 91.3161 58.2142 91.8067 58.6927L100.529 67.2059C93.8364 68.3476 88.6098 69.2167 88.4947 69.2358C88.3316 69.2632 88.1715 69.3049 88.0169 69.3619C85.9672 70.1106 84.339 71.5936 83.4322 73.5375C82.5254 75.4817 82.4485 77.6539 83.2153 79.6541C83.9978 81.6942 86.3172 85.036 93.0585 84.4938C97.0619 84.1723 100.609 83.9437 103.176 83.7941L101.895 86.5956L83.9893 95.1748L82.1318 94.8077C82.94 91.0135 80.8121 87.0948 76.9805 85.6953C76.8256 85.6386 76.6658 85.5966 76.5027 85.5695C76.4479 85.5603 75.2329 85.3582 73.255 85.0264C73.8095 84.6657 74.3636 84.305 74.9181 83.9443C75.6921 83.4407 76.425 82.9574 76.668 82.0081L79.4571 71.1186C79.509 70.9161 79.5351 70.7082 79.5351 70.4997V56.8879C79.5351 55.7896 78.8149 54.8141 77.7474 54.4668L69.9655 51.9349L62.2186 44.3726L56.784 36.4161C56.2989 35.7062 55.4829 35.2796 54.6084 35.2796H43.4517C42.4611 35.2796 41.5556 35.8259 41.113 36.6906L38.3579 42.0689L37.6993 40.1403V32.3873C37.6993 31.2889 36.9791 30.3135 35.9116 29.9662L32.324 28.7991C34.7589 22.0241 38.6348 15.7648 43.7971 10.4176C44.7877 9.39156 44.7384 7.77652 43.6872 6.80998C42.6359 5.84312 40.9813 5.89151 39.991 6.91726C29.745 17.5298 24.1022 31.4096 24.1022 45.9991C24.1022 57.9786 27.9924 69.6662 35.1245 79.3259C32.9578 79.7932 30.8999 80.6926 28.9895 81.5299L28.9227 81.5595H1.61492C0.170957 81.5595 -1 82.7021 -1 84.1118C-1 85.5215 0.170631 86.6641 1.61492 86.6641H29.4821C30.0855 86.6641 30.5976 86.4208 31.1328 86.1865C33.8717 84.9857 36.7051 83.7431 39.0849 84.2092C49.3241 86.2104 72.5074 90.0826 75.3431 90.555C76.7444 91.1794 77.4339 92.7702 76.8856 94.1996C76.4156 95.4256 74.8966 95.9445 72.3694 95.7411C64.1815 95.0834 57.8691 94.8087 57.8062 94.8061C55.9017 94.7278 54.5233 96.6898 55.3031 98.3959L58.7129 105.854C58.9621 106.399 59.3995 106.842 59.9485 107.105L79.5035 116.474C80.0123 116.718 80.5883 116.794 81.1448 116.69C81.9162 116.547 100.112 113.16 106.315 111.716C109.775 110.91 110.349 112.022 110.768 112.835C111.139 113.552 111.191 114.361 110.917 115.112C110.646 115.856 110.093 116.444 109.36 116.772L82.0939 127.793L52.727 125.187L28.5926 109.222C28.1607 108.936 27.6496 108.783 27.1265 108.783H1.61492C0.170957 108.783 -1 109.926 -1 111.336C-1 112.745 0.170631 113.888 1.61492 113.888H26.3244L50.3525 129.782C50.7185 130.025 51.1422 130.172 51.5825 130.211L82.2632 132.934C82.3425 132.941 82.4211 132.944 82.5 132.944C82.8425 132.944 83.1827 132.879 83.5007 132.75L111.4 121.473C111.422 121.464 111.444 121.455 111.465 121.445C113.5 120.559 115.097 118.874 115.845 116.825C116.603 114.746 116.459 112.513 115.439 110.538C114.138 108.015 111.287 105.311 105.102 106.751C99.7675 107.993 84.7731 110.815 81.0237 111.516L63.1035 102.931L61.8227 100.129C64.389 100.278 67.9348 100.507 71.9405 100.829C75.2763 101.096 77.5282 100.413 79.0484 99.4074L83.8256 100.351C84.3879 100.462 84.9815 100.388 85.4965 100.141L105.052 90.7712C105.601 90.5083 106.038 90.0654 106.287 89.5204L109.697 82.0622C110.475 80.3596 109.1 78.3893 107.194 78.4724C107.131 78.4752 100.818 78.7493 92.6306 79.4074C90.1044 79.6108 88.5847 79.0919 88.1144 77.8659C87.5664 76.4368 88.256 74.8459 89.6572 74.2213C92.4923 73.7489 115.676 69.8766 125.915 67.8754C128.296 67.4103 131.128 68.6519 133.868 69.8528C134.403 70.0871 134.915 70.3303 135.518 70.3303H163.385C164.829 70.3303 166 69.1877 166 67.778C166 66.3683 164.829 65.2254 163.385 65.2254ZM65.7726 83.7622C58.2008 82.4738 48.3041 80.762 41.8854 79.5449C41.8166 79.4332 41.7416 79.324 41.6532 79.2208C33.7079 69.9244 29.332 58.126 29.332 45.9987C29.332 41.8088 29.8444 37.6838 30.837 33.6954L32.4698 34.2268V40.5542C32.4698 40.8286 32.5151 41.1011 32.6042 41.3612L35.3933 49.5281C36.1141 51.6391 39.1919 51.8556 40.2125 49.8624L45.0679 40.3838H53.2091L58.011 47.4142C58.1066 47.5539 58.2159 47.6845 58.3378 47.8032L66.7051 55.9701C66.9922 56.2502 67.3421 56.4616 67.7273 56.5867L74.3069 58.7274V70.1855L71.841 79.813L65.7726 83.7622ZM113.355 45.9991V56.6354L111.58 65.2961C110 65.5734 108.401 65.852 106.819 66.1254L96.2713 55.8313V48.7214C96.2713 47.5049 95.3916 46.4575 94.1695 46.2187L82.3258 43.9068V38.6048L87.4647 31.0807C87.751 30.6615 87.904 30.1686 87.904 29.665V18.7755C87.904 17.6772 87.1838 16.7017 86.1163 16.3544L78.9894 14.0358L76.6139 7.07963C76.3171 6.21083 75.5662 5.5636 74.6458 5.38405L62.8022 3.07212V-2.22888C69.0027 -4.64587 75.6504 -5.89543 82.5003 -5.89543C107.464 -5.89543 128.46 10.9846 134.147 33.6642C134.04 33.8104 133.947 33.9686 133.872 34.1395L130.981 40.7245H124.338C124.057 40.7245 123.777 40.7687 123.511 40.8556L115.144 43.5779C114.075 43.9253 113.355 44.9004 113.355 45.9991ZM132.475 63.7486C130.092 62.8979 127.546 62.3506 124.888 62.8699C122.762 63.2853 120.069 63.7832 117.115 64.3143L118.534 57.3887C118.567 57.2241 118.584 57.0563 118.584 56.8882V47.8385L124.761 45.8287H132.705C133.751 45.8287 134.696 45.2204 135.108 44.2822L135.589 43.186C135.641 44.1176 135.668 45.0551 135.668 45.9987C135.668 52.1163 134.594 58.0757 132.475 63.7486Z" fill="#264309"/>
<path d="M164.385 112.977H138.873C138.35 112.977 137.839 113.13 137.406 113.417L118.783 125.736C117.588 126.527 117.275 128.113 118.086 129.28C118.591 130.008 119.415 130.401 120.252 130.401C120.757 130.401 121.268 130.258 121.717 129.961L139.676 118.082H164.385C165.829 118.082 167 116.939 167 115.529C167 114.12 165.829 112.977 164.385 112.977Z" fill="#264309"/>
</svg>
