<svg width="335" height="346" viewBox="0 0 335 346" fill="none" xmlns="http://www.w3.org/2000/svg">
<path d="M334.5 173C334.5 268.284 259.716 345.5 167.5 345.5C75.2836 345.5 0.5 268.284 0.5 173C0.5 77.7155 75.2836 0.5 167.5 0.5C259.716 0.5 334.5 77.7155 334.5 173Z" fill="#D9D9D9" stroke="#6E6A6A"/>
<path fill-rule="evenodd" clip-rule="evenodd" d="M166.292 139.56C170.296 139.56 173.542 142.72 173.542 146.617V158.377H185.625C189.629 158.377 192.875 161.536 192.875 165.433C192.875 169.33 189.629 172.489 185.625 172.489H173.542V184.25C173.542 188.147 170.296 191.306 166.292 191.306C162.289 191.306 159.043 188.147 159.043 184.25V172.489H146.96C142.956 172.489 139.71 169.33 139.71 165.433C139.71 161.536 142.956 158.377 146.96 158.377H159.043V146.617C159.043 142.72 162.289 139.56 166.292 139.56Z" fill="#404040"/>
<path fill-rule="evenodd" clip-rule="evenodd" d="M144.812 240.699H187.773C217.943 240.699 233.028 240.699 243.864 233.781C248.554 230.785 252.582 226.936 255.717 222.454C262.957 212.099 262.957 197.684 262.957 168.854C262.957 140.025 262.957 125.61 255.717 115.255C252.582 110.772 248.554 106.923 243.864 103.928C236.9 99.4823 228.184 97.8933 214.837 97.3253C208.468 97.3253 202.985 92.7135 201.736 86.7457C199.862 77.794 191.637 71.3503 182.085 71.3503H150.5C140.948 71.3503 132.722 77.794 130.849 86.7457C129.6 92.7135 124.116 97.3253 117.748 97.3253C104.402 97.8933 95.6845 99.4823 88.7217 103.928C84.0307 106.923 80.003 110.772 76.8685 115.255C69.6282 125.61 69.6282 140.025 69.6282 168.854C69.6282 197.684 69.6282 212.099 76.8685 222.454C80.003 226.936 84.0307 230.785 88.7217 233.781C99.5578 240.699 114.642 240.699 144.812 240.699ZM204.958 165.433C204.958 186.217 187.647 203.066 166.293 203.066C144.938 203.066 127.627 186.217 127.627 165.433C127.627 144.649 144.938 127.8 166.293 127.8C187.647 127.8 204.958 144.649 204.958 165.433ZM224.291 130.152C220.287 130.152 217.041 133.311 217.041 137.208C217.041 141.105 220.287 144.265 224.291 144.265H233.958C237.961 144.265 241.207 141.105 241.207 137.208C241.207 133.311 237.961 130.152 233.958 130.152H224.291Z" fill="#404040"/>
</svg>
