<svg width="194" height="170" viewBox="0 0 194 170" fill="none" xmlns="http://www.w3.org/2000/svg">
<path fill-rule="evenodd" clip-rule="evenodd" d="M97.2924 68.5603C101.296 68.5603 104.542 71.7196 104.542 75.6165V87.3769H116.625C120.629 87.3769 123.875 90.5362 123.875 94.4331C123.875 98.33 120.629 101.489 116.625 101.489H104.542V113.25C104.542 117.147 101.296 120.306 97.2924 120.306C93.2886 120.306 90.0426 117.147 90.0426 113.25V101.489H77.9595C73.9556 101.489 70.7097 98.33 70.7097 94.4331C70.7097 90.5362 73.9556 87.3769 77.9595 87.3769H90.0426V75.6165C90.0426 71.7196 93.2886 68.5603 97.2924 68.5603Z" fill="#404040"/>
<path fill-rule="evenodd" clip-rule="evenodd" d="M75.8116 169.699H118.773C148.943 169.699 164.028 169.699 174.864 162.781C179.554 159.785 183.582 155.936 186.717 151.454C193.957 141.099 193.957 126.684 193.957 97.854C193.957 69.0252 193.957 54.6099 186.717 44.255C183.582 39.7724 179.554 35.9234 174.864 32.9282C167.9 28.4823 159.184 26.8933 145.837 26.3253C139.468 26.3253 133.985 21.7135 132.736 15.7457C130.862 6.79398 122.637 0.350342 113.085 0.350342H81.5005C71.9476 0.350342 63.7225 6.79398 61.8489 15.7457C60.5999 21.7135 55.1164 26.3253 48.7477 26.3253C35.4015 26.8933 26.6845 28.4823 19.7217 32.9282C15.0307 35.9234 11.003 39.7724 7.86853 44.255C0.628175 54.6099 0.628174 69.0252 0.628174 97.854C0.628174 126.684 0.628175 141.099 7.86853 151.454C11.003 155.936 15.0307 159.785 19.7217 162.781C30.5578 169.699 45.6424 169.699 75.8116 169.699ZM135.958 94.4332C135.958 115.217 118.647 132.066 97.2926 132.066C75.938 132.066 58.6268 115.217 58.6268 94.4332C58.6268 73.6493 75.938 56.8 97.2926 56.8C118.647 56.8 135.958 73.6493 135.958 94.4332ZM155.291 59.1521C151.287 59.1521 148.041 62.3113 148.041 66.2083C148.041 70.1052 151.287 73.2645 155.291 73.2645H164.958C168.961 73.2645 172.207 70.1052 172.207 66.2083C172.207 62.3113 168.961 59.1521 164.958 59.1521H155.291Z" fill="#404040"/>
</svg>
