<svg width="44" height="46" viewBox="0 0 44 46" fill="none" xmlns="http://www.w3.org/2000/svg">
<path opacity="0.1" d="M36.673 15.7247L10.4046 43.2103C9.54409 44.1107 8.37488 44.6168 7.15549 44.6168H3.30609C2.0349 44.6168 1.00439 43.5334 1.00439 42.2085V38.1617C1.00439 36.8973 1.48504 35.6846 2.3411 34.7889L28.6677 7.24219C28.6895 7.35321 28.7416 7.45905 28.8241 7.54517L36.6606 15.7123C36.6647 15.7165 36.6689 15.7206 36.673 15.7247Z" fill="#323232"/>
<path d="M40.1332 12.1039L10.4046 43.2103C9.54409 44.1107 8.37488 44.6168 7.15549 44.6168H3.30609C2.0349 44.6168 1.00439 43.5334 1.00439 42.2085V38.1617C1.00439 36.8973 1.48504 35.6846 2.3411 34.7889L32.0773 3.67463C38.9824 -2.34631 45.8875 6.08294 40.1332 12.1039Z" stroke="#323232" stroke-width="2" stroke-linecap="round" stroke-linejoin="round"/>
<path d="M29.2295 7.12256L37.066 15.2897" stroke="#323232" stroke-width="2" stroke-linecap="round" stroke-linejoin="round"/>
</svg>
