<svg width="28" height="28" viewBox="0 0 28 28" fill="none" xmlns="http://www.w3.org/2000/svg">
<path d="M14.2589 0.374878C6.77559 0.374878 0.628174 6.49958 0.628174 13.9542C0.628174 21.4099 6.77559 27.5346 14.2589 27.5346C21.487 27.5346 27.414 21.8059 27.8137 14.6987C27.8636 14.4536 27.8891 14.2042 27.8897 13.9542C27.8893 13.703 27.8638 13.4526 27.8137 13.2065C27.4118 6.0992 21.4849 0.374878 14.2589 0.374878ZM14.2589 7.9496C17.6335 7.9496 20.2869 10.5921 20.2869 13.9542C20.2869 17.3163 17.6335 19.9599 14.2589 19.9599C10.8844 19.9599 8.23099 17.3163 8.23099 13.9542C8.23099 10.5921 10.8844 7.9496 14.2589 7.9496Z" fill="black"/>
</svg>
