<svg width="125" height="117" viewBox="0 0 125 117" fill="none" xmlns="http://www.w3.org/2000/svg">
<path fill-rule="evenodd" clip-rule="evenodd" d="M62.1396 109.646C32.2223 109.646 7.96954 86.747 7.96954 58.5163C7.96954 30.2856 32.2223 7.38696 62.1396 7.38696C92.057 7.38696 116.31 30.2856 116.31 58.5163C116.31 86.747 92.057 109.646 62.1396 109.646ZM62.1396 0.0827637C27.9467 0.0827637 0.230957 26.2318 0.230957 58.5163C0.230957 90.8009 27.9467 116.95 62.1396 116.95C96.3325 116.95 124.048 90.8009 124.048 58.5163C124.048 26.2318 96.3325 0.0827637 62.1396 0.0827637ZM85.3553 54.8642H66.0089V36.6037C66.0089 34.5951 64.2793 32.9516 62.1396 32.9516C59.9999 32.9516 58.2703 34.5951 58.2703 36.6037V54.8642H38.9239C36.7841 54.8642 35.0546 56.5077 35.0546 58.5163C35.0546 60.525 36.7841 62.1684 38.9239 62.1684H58.2703V80.4289C58.2703 82.4376 59.9999 84.081 62.1396 84.081C64.2793 84.081 66.0089 82.4376 66.0089 80.4289V62.1684H85.3553C87.4951 62.1684 89.2246 60.525 89.2246 58.5163C89.2246 56.5077 87.4951 54.8642 85.3553 54.8642Z" fill="#575757"/>
</svg>
