<svg width="175" height="104" viewBox="0 0 175 104" fill="none" xmlns="http://www.w3.org/2000/svg">
<mask id="mask0_188_34" style="mask-type:luminance" maskUnits="userSpaceOnUse" x="69" y="10" width="37" height="41">
<path d="M69.6925 10.4199H105.222V50.5554H69.6925V10.4199Z" fill="white"/>
</mask>
<g mask="url(#mask0_188_34)">
<path d="M87.4573 50.4066C97.2198 50.4066 105.161 39.4541 105.161 29.1356C105.161 18.8172 97.2198 10.4199 87.4573 10.4199C77.6941 10.4199 69.7519 18.8172 69.7519 29.1356C69.7539 39.4534 77.6948 50.4066 87.4573 50.4066Z" fill="#FA8F21"/>
</g>
<path d="M100.748 50.5977C97.3138 53.3638 93.0294 55.0093 88.3888 55.0093H86.5251C81.8838 55.0093 77.5987 53.3631 74.1651 50.5977C62.952 52.5139 54.3892 62.7873 54.3892 75.18C54.3892 81.9875 69.1934 87.5079 87.4573 87.5079C105.719 87.5079 120.525 81.9875 120.525 75.18C120.525 62.7873 111.961 52.5139 100.748 50.5977Z" fill="#FA8F21"/>
</svg>
