<svg width="16" height="34" viewBox="0 0 16 34" fill="none" xmlns="http://www.w3.org/2000/svg">
<path d="M15.24 22.595C15.24 24.3683 14.7733 25.85 13.84 27.04C12.9067 28.2067 11.425 28.9417 9.395 29.245V33.655H6.595V29.315C5.615 29.2683 4.58833 29.1167 3.515 28.86C2.465 28.58 1.39167 28.1833 0.295 27.67L1.24 25.08C2.47667 25.64 3.585 26.0367 4.565 26.27C5.56833 26.5033 6.57167 26.62 7.575 26.62C9.045 26.62 10.1767 26.305 10.97 25.675C11.7633 25.0217 12.16 24.0767 12.16 22.84C12.16 21.8133 11.88 20.95 11.32 20.25C10.7833 19.55 9.89667 19.0133 8.66 18.64L5.825 17.8C4.05167 17.2633 2.745 16.4583 1.905 15.385C1.065 14.2883 0.645 12.9467 0.645 11.36C0.645 10.2633 0.843333 9.26 1.24 8.35C1.63667 7.41666 2.26667 6.64667 3.13 6.04C4.01667 5.43333 5.17167 5.06 6.595 4.92V0.544999H9.395V4.92C10.2117 5.01333 11.0517 5.18833 11.915 5.445C12.7783 5.67833 13.6417 5.99333 14.505 6.39L13.525 9.015C12.405 8.525 11.39 8.175 10.48 7.965C9.59333 7.73167 8.74167 7.615 7.925 7.615C6.595 7.615 5.55667 7.895 4.81 8.455C4.08667 8.99167 3.725 9.89 3.725 11.15C3.725 12.06 3.97 12.83 4.46 13.46C4.95 14.0667 5.825 14.5683 7.085 14.965L9.92 15.805C13.4667 16.855 15.24 19.1183 15.24 22.595Z" fill="black"/>
</svg>
